{"glyphs":{"0":{"ha":688,"x_min":0,"x_max":602,"o":"m 300 1503 l 306 1503 q 313 1497 309 1503 l 313 882 q 320 868 320 875 l 320 863 q 313 849 320 857 q 536 725 454 849 q 585 585 585 629 q 602 449 592 585 l 602 407 q 509 87 602 208 q 403 16 454 31 q 309 0 340 0 q 30 207 96 0 q 2 398 2 307 q 0 399 0 398 q 2 416 2 409 l 2 431 q 0 440 2 437 q 25 631 7 566 q 96 762 50 707 q 151 810 123 796 q 285 849 219 849 q 277 867 277 856 q 290 884 281 884 q 262 951 290 921 q 248 944 254 944 l 242 944 q 223 964 229 944 q 244 987 227 987 l 245 987 q 271 962 260 987 q 292 934 286 952 l 294 934 l 294 1497 q 300 1503 294 1499 m 274 783 q 306 753 274 758 q 332 785 332 759 q 313 810 326 810 l 313 801 q 306 794 313 798 l 300 794 q 294 801 298 794 l 294 810 l 292 810 q 274 783 274 800 m 166 416 l 168 391 l 166 384 q 184 244 172 283 q 250 149 204 175 q 299 134 281 134 q 384 172 343 134 q 437 425 437 241 l 437 442 q 302 711 437 711 l 283 711 q 224 682 260 711 q 177 562 177 621 q 166 416 168 550 z "},"1":{"ha":454,"x_min":0,"x_max":420,"o":"m 279 1501 l 285 1501 q 292 1494 288 1501 l 292 874 l 294 874 q 317 905 294 885 q 338 926 321 926 l 340 926 q 361 903 357 926 q 342 883 355 883 l 336 883 q 322 890 330 883 q 296 828 296 861 l 296 825 q 306 807 306 814 l 306 802 q 292 784 306 789 l 292 779 q 315 782 311 780 q 357 750 357 782 l 420 -8 q 342 -42 420 -42 l 285 -47 q 254 -17 254 -43 q 216 460 251 13 q 192 479 205 479 l 189 479 l 34 471 l 32 471 q 3 519 3 471 q 0 568 0 536 q 66 600 0 594 q 191 677 162 628 q 224 759 210 701 q 273 777 237 777 l 273 785 q 263 802 263 795 l 263 805 q 273 823 263 812 l 273 1494 q 279 1501 273 1497 m 253 707 q 285 677 253 682 q 311 709 311 682 q 292 734 304 734 l 292 725 q 285 718 292 722 l 279 718 q 273 725 277 718 l 273 734 l 271 734 q 253 707 253 724 z "},"2":{"ha":622,"x_min":0,"x_max":613,"o":"m 292 1495 l 297 1495 q 304 1488 300 1495 l 304 901 l 306 901 q 328 930 306 911 q 349 951 333 951 l 351 951 q 372 928 368 951 q 353 909 366 909 l 348 909 q 334 916 341 909 q 307 855 307 887 l 307 852 q 318 834 318 841 l 318 829 q 304 812 318 817 l 304 803 l 334 803 q 589 661 507 803 q 613 551 613 613 l 613 537 q 428 282 613 381 q 260 174 317 218 q 234 137 234 151 q 271 121 237 126 q 580 102 580 108 q 594 69 594 91 q 576 -28 592 -28 l 561 -34 q 21 -4 380 -24 q 0 24 0 5 l 0 31 q 56 176 0 86 q 138 256 101 231 q 363 399 222 316 q 446 500 429 446 q 450 544 450 529 q 377 654 450 619 q 335 663 361 659 l 328 663 q 220 583 258 663 q 197 500 206 549 q 171 486 186 486 q 51 500 68 486 q 43 515 43 511 q 91 675 48 598 q 231 787 140 753 q 285 800 252 794 l 285 813 q 276 829 276 822 l 276 832 q 285 850 276 840 l 285 1488 q 292 1495 285 1491 m 265 736 q 297 707 265 711 q 323 738 323 712 q 304 762 317 762 l 304 754 q 297 747 304 751 l 292 747 q 285 754 289 747 l 285 762 l 283 762 q 265 736 265 753 z "},"3":{"ha":608,"x_min":0,"x_max":601,"o":"m 261 1499 l 266 1499 q 273 1493 269 1499 l 273 906 q 280 892 280 899 l 280 886 q 273 873 280 880 q 319 874 307 874 q 569 750 477 874 q 597 648 597 693 l 597 645 q 543 510 597 559 q 509 486 543 507 q 499 475 499 477 l 499 471 q 548 426 499 460 q 597 316 597 370 q 601 295 599 316 q 597 284 599 284 l 599 275 l 599 274 q 543 130 599 212 q 298 34 453 34 l 296 34 q 166 60 249 34 q 0 314 0 136 q 31 349 0 349 q 154 321 154 349 q 198 209 170 234 q 296 169 241 169 l 299 169 q 420 250 389 169 q 429 286 429 275 l 429 293 q 371 396 429 370 q 278 419 356 408 q 254 450 258 419 q 271 528 258 528 q 349 534 271 532 q 412 564 412 553 q 441 631 441 594 q 355 736 441 707 q 333 739 340 739 l 322 739 q 196 621 228 739 q 174 608 189 608 l 168 608 q 54 624 54 611 q 47 643 47 633 q 112 785 65 730 q 250 867 180 856 q 238 890 238 878 q 250 907 241 907 q 222 974 250 944 q 208 967 215 967 l 203 967 q 184 986 190 967 q 205 1009 187 1009 l 207 1009 q 231 985 221 1009 q 252 957 246 975 l 254 957 l 254 1493 q 261 1499 254 1495 m 235 808 q 266 778 235 783 q 292 810 292 783 q 273 834 286 834 l 273 825 q 266 819 273 823 l 261 819 q 254 825 258 819 l 254 834 l 252 834 q 235 808 235 824 z "},"4":{"ha":646,"x_min":0,"x_max":637,"o":"m 336 1500 l 342 1500 q 349 1493 345 1500 l 349 833 l 351 833 q 375 865 351 844 q 397 886 380 886 l 399 886 q 420 863 416 886 q 400 843 414 843 l 395 843 q 380 850 389 843 q 353 786 353 820 l 353 783 q 364 764 364 772 l 364 759 q 349 741 364 747 l 349 735 q 406 743 397 743 q 439 665 433 743 q 508 268 500 300 q 538 253 518 253 q 591 262 584 262 l 595 262 q 629 210 625 262 q 637 153 637 168 q 604 122 637 127 q 538 91 538 117 q 537 80 538 80 q 560 -60 553 -9 q 464 -98 560 -92 q 437 -102 464 -102 l 428 -102 q 399 -58 399 -102 q 368 73 378 73 q 349 79 358 79 q 54 31 340 79 l 40 31 q 7 113 15 31 q 0 164 0 144 l 0 171 q 49 280 0 193 l 258 688 q 300 724 274 724 q 330 732 300 728 l 330 743 q 320 759 320 752 l 320 762 q 330 781 320 770 l 330 1493 q 336 1500 330 1495 m 309 663 q 342 631 309 636 q 370 665 370 637 q 349 690 362 690 l 349 681 q 342 673 349 678 l 336 673 q 330 681 334 673 l 330 690 l 328 690 q 309 663 309 680 m 147 210 q 168 191 150 191 q 333 222 308 212 q 346 245 340 222 q 302 477 311 477 q 298 481 302 481 l 295 481 q 253 420 278 481 q 147 213 189 305 l 147 210 z "},"5":{"ha":688,"x_min":0,"x_max":673,"o":"m 275 1498 l 281 1498 q 288 1491 283 1498 l 288 866 q 295 852 295 859 l 295 847 q 290 834 295 841 q 663 751 621 763 q 673 733 673 742 l 673 722 q 656 637 673 705 q 633 623 646 623 l 631 623 q 347 682 622 623 l 336 682 q 290 610 309 682 q 263 543 272 576 q 272 529 263 534 l 277 529 l 343 543 l 364 543 q 593 399 520 543 q 615 312 615 351 l 615 264 q 530 65 615 158 q 327 -20 434 -20 q 52 99 165 -20 q 0 250 0 169 l 0 264 q 25 300 0 300 q 161 260 161 277 q 195 170 179 170 q 277 120 195 147 l 298 118 q 378 141 334 118 q 439 221 428 184 q 450 267 450 252 l 450 296 q 395 403 450 354 q 290 431 354 431 q 210 397 250 426 q 194 393 198 393 l 184 393 q 71 424 94 410 l 68 436 l 68 441 q 180 719 77 472 q 236 836 225 834 q 254 842 236 842 l 252 845 l 252 850 q 264 868 256 868 q 236 936 264 905 q 222 928 229 928 l 217 928 q 197 948 203 928 q 218 971 201 971 l 220 971 q 245 946 235 971 q 267 918 260 937 l 269 918 l 269 1491 q 275 1498 269 1494 m 249 753 q 281 722 249 727 q 307 754 307 728 q 288 779 300 779 l 288 770 q 281 763 288 768 l 275 763 q 269 770 273 763 l 269 779 l 267 779 q 249 753 249 769 z "},"6":{"ha":656,"x_min":0,"x_max":640,"o":"m 253 1497 l 258 1497 q 266 1489 261 1497 l 266 931 l 267 931 q 291 961 267 941 q 312 983 296 983 l 314 983 q 335 960 332 983 q 315 940 330 940 l 311 940 q 296 947 304 940 q 269 884 269 918 l 269 881 q 280 863 280 870 l 280 858 q 266 840 280 846 l 266 833 q 348 850 321 850 q 624 685 549 850 q 640 601 640 640 l 640 595 q 610 569 640 569 q 487 612 487 591 q 460 680 476 657 q 385 722 420 722 l 368 722 q 207 560 276 722 l 205 549 l 205 538 q 212 532 205 536 l 221 532 q 317 562 283 562 l 357 562 q 439 541 404 556 q 521 484 471 530 q 590 312 590 411 l 590 307 q 444 36 590 140 q 311 0 373 0 q 98 73 193 0 q 22 191 33 141 q 0 319 0 264 q 121 722 0 549 q 201 801 162 773 q 246 824 222 813 l 246 842 q 237 858 237 851 l 237 861 q 246 879 237 869 l 246 1489 q 253 1497 246 1493 m 227 763 q 258 733 227 737 q 286 765 286 739 q 266 790 279 790 l 266 781 q 258 774 266 779 l 253 774 q 246 781 250 774 l 246 790 l 244 790 q 227 763 227 780 m 161 287 l 162 283 q 161 278 161 280 q 239 150 161 193 q 267 141 259 141 l 298 141 q 408 232 363 141 q 422 301 422 277 q 394 401 422 353 q 303 444 355 444 l 286 444 q 170 339 211 444 q 161 287 161 311 z "},"7":{"ha":574,"x_min":0,"x_max":564,"o":"m 430 1499 l 435 1499 q 442 1492 438 1499 l 442 942 l 444 942 q 467 972 444 952 q 488 993 472 993 l 490 993 q 511 970 508 993 q 492 951 506 951 l 486 951 q 472 958 480 951 q 446 896 446 928 l 446 892 q 456 875 456 882 l 456 869 q 442 852 456 857 l 442 844 l 444 844 q 524 859 500 857 q 557 776 547 859 q 564 741 564 753 l 564 731 q 515 640 564 720 q 425 203 425 438 q 437 41 428 92 q 387 -1 437 -1 q 290 -20 366 -6 q 262 59 262 -20 q 260 116 262 68 q 382 637 260 371 q 389 657 389 649 q 364 671 389 669 l 352 668 l 349 669 q 47 608 73 611 q 16 646 16 612 q 0 728 0 718 l 0 731 q 78 768 0 762 q 422 840 248 806 l 422 853 q 414 869 414 863 l 414 873 q 422 890 414 880 l 422 1492 q 430 1499 422 1495 m 404 776 q 435 745 404 750 q 462 777 462 751 q 442 802 455 802 l 442 793 q 435 786 442 791 l 430 786 q 422 793 427 786 l 422 802 l 421 802 q 404 776 404 792 z "},"8":{"ha":602,"x_min":0,"x_max":589,"o":"m 287 1503 l 292 1503 q 298 1496 294 1503 l 298 928 q 305 915 305 921 l 305 909 q 298 896 305 903 l 298 891 q 530 771 457 891 q 557 669 557 724 q 513 562 557 623 q 467 522 471 527 q 509 488 467 507 q 581 383 565 450 q 589 328 587 363 q 458 119 589 187 q 295 81 388 81 q 39 193 125 81 q 0 328 0 256 q 25 427 1 374 q 113 507 50 473 q 120 515 113 507 l 120 518 q 83 553 120 528 q 32 669 32 614 l 34 677 l 34 682 q 140 850 34 789 q 258 889 189 879 q 280 891 266 889 l 280 892 q 264 913 267 892 q 277 930 268 930 q 250 994 277 964 q 236 987 243 987 l 231 987 q 212 1006 218 987 q 233 1027 216 1027 l 235 1027 q 258 1004 248 1027 q 278 977 273 994 l 280 977 l 280 1496 q 287 1503 280 1499 m 262 833 q 292 805 262 809 q 317 836 317 810 q 298 859 311 859 l 298 850 q 292 844 298 848 l 287 844 q 280 850 284 844 l 280 859 l 278 859 q 262 833 262 850 m 280 770 q 275 771 277 771 q 216 747 245 767 q 177 665 177 715 l 177 660 q 255 567 177 593 q 295 562 281 562 l 304 562 q 401 616 366 562 q 413 667 413 643 q 383 741 413 709 q 312 771 347 771 q 305 773 312 773 q 280 770 281 771 m 159 331 q 229 214 159 258 q 304 199 261 199 q 399 243 355 199 q 430 324 430 281 l 430 333 q 351 446 430 407 q 297 456 332 452 q 167 378 203 456 q 159 331 159 349 z "},"9":{"ha":646,"x_min":0,"x_max":631,"o":"m 340 1501 l 345 1501 q 353 1494 348 1501 l 353 954 l 355 954 q 378 984 355 964 q 399 1006 382 1006 l 401 1006 q 422 982 419 1006 q 403 962 417 962 l 397 962 q 383 970 391 962 q 356 907 356 940 l 356 903 q 367 885 367 892 l 367 880 q 353 862 367 867 q 397 849 353 859 q 562 698 500 809 q 631 385 631 549 l 631 349 q 604 210 624 265 q 468 38 562 88 q 359 2 452 22 q 342 0 351 0 l 295 0 q 178 33 247 0 q 72 169 101 80 l 72 174 q 111 199 72 195 l 191 210 l 196 210 q 245 169 222 210 q 334 126 286 126 q 439 194 395 126 q 471 345 471 263 q 457 369 471 369 l 452 369 q 328 293 372 293 q 262 282 319 288 q 56 383 142 282 q 2 563 2 467 q 0 567 0 563 q 77 772 0 681 q 309 863 168 863 q 333 862 321 862 l 333 863 q 323 880 323 873 l 323 883 q 333 901 323 891 l 333 1494 q 340 1501 333 1497 m 313 784 q 345 753 313 758 q 372 786 372 760 q 353 811 366 811 l 353 802 q 345 795 353 800 l 340 795 q 333 802 337 795 l 333 811 l 331 811 q 313 784 313 801 m 168 579 q 203 464 168 523 q 304 416 242 416 l 313 416 q 394 455 355 419 q 432 570 432 496 q 349 711 432 649 q 304 722 324 722 l 273 722 q 221 701 248 718 q 168 579 168 656 z "}," ":{"ha":345,"x_min":0,"x_max":0,"o":""}," ":{"ha":345,"x_min":0,"x_max":0,"o":""},"!":{"ha":456,"x_min":115,"x_max":304,"o":"m 201 1502 l 207 1502 q 214 1495 210 1502 l 214 851 q 222 837 222 844 l 222 831 q 214 817 222 825 l 214 813 l 216 813 q 294 800 294 813 q 299 767 299 791 l 299 612 q 266 324 299 564 q 250 221 255 221 q 222 207 250 211 l 216 207 l 216 132 l 268 132 q 304 91 304 132 l 304 -12 q 270 -54 304 -54 l 156 -54 q 115 -18 115 -54 l 115 100 q 146 132 119 132 l 182 132 q 191 138 191 138 q 174 163 191 163 q 150 182 150 163 l 150 186 q 170 207 150 201 l 174 207 q 194 186 194 203 l 194 182 l 193 174 l 196 172 l 196 207 q 161 256 161 207 q 119 585 152 317 q 121 760 121 688 l 121 783 q 170 813 121 813 l 189 813 q 178 835 178 823 q 191 853 182 853 q 161 923 191 891 q 146 916 153 916 l 141 916 q 121 936 127 916 q 143 960 125 960 l 144 960 q 170 934 160 960 q 193 905 186 924 l 194 905 l 194 1495 q 201 1502 194 1497 m 174 749 q 207 718 174 722 q 235 750 235 723 q 214 776 228 776 l 214 767 q 207 760 214 764 l 201 760 q 194 767 199 760 l 194 776 l 193 776 q 174 749 174 766 m 183 282 q 196 256 183 266 q 203 273 196 273 l 209 273 q 216 265 212 273 l 216 252 l 218 252 q 235 283 235 261 q 213 309 229 309 l 205 309 q 183 282 189 309 m 216 91 l 216 73 q 211 67 216 70 l 203 67 q 196 87 196 67 q 183 68 189 87 q 216 47 189 47 q 245 73 245 50 q 222 91 237 91 l 216 91 z "},"\"":{"ha":456,"x_min":3,"x_max":420,"o":"m 86 1502 l 92 1502 q 99 1495 94 1502 l 99 1156 q 106 1142 106 1149 l 106 1137 q 99 1122 106 1130 l 99 1118 l 101 1118 q 178 1105 178 1118 q 183 1072 183 1097 l 183 1006 q 161 891 183 958 q 134 825 139 825 q 106 810 134 814 l 101 810 l 81 810 q 3 979 45 810 l 5 1065 l 5 1088 q 55 1118 5 1118 l 73 1118 q 62 1140 62 1128 q 75 1158 66 1158 q 45 1228 75 1196 q 31 1221 38 1221 l 26 1221 q 5 1241 12 1221 q 27 1265 9 1265 l 29 1265 q 55 1239 45 1265 q 77 1210 71 1229 l 79 1210 l 79 1495 q 86 1502 79 1497 m 58 1054 q 92 1023 58 1027 q 119 1055 119 1028 q 99 1081 112 1081 l 99 1072 q 92 1065 99 1069 l 86 1065 q 79 1072 83 1065 l 79 1081 l 77 1081 q 58 1054 58 1071 m 323 1502 l 329 1502 q 336 1495 332 1502 l 336 1156 q 344 1142 344 1149 l 344 1137 q 336 1122 344 1130 l 336 1118 l 338 1118 q 415 1105 415 1118 q 420 1072 420 1097 l 420 1006 q 398 891 420 958 q 371 825 376 825 q 344 810 371 814 l 338 810 l 318 810 q 241 979 283 810 l 243 1065 l 243 1088 q 292 1118 243 1118 l 311 1118 q 300 1140 300 1128 q 313 1158 303 1158 q 283 1228 313 1196 q 269 1221 275 1221 l 263 1221 q 243 1241 249 1221 q 264 1265 246 1265 l 267 1265 q 292 1239 282 1265 q 314 1210 308 1229 l 316 1210 l 316 1495 q 323 1502 316 1497 m 296 1054 q 329 1023 296 1027 q 357 1055 357 1028 q 336 1081 349 1081 l 336 1072 q 329 1065 336 1069 l 323 1065 q 316 1072 321 1065 l 316 1081 l 314 1081 q 296 1054 296 1071 z "},"#":{"ha":906,"x_min":88,"x_max":753,"o":"m 476 1500 l 482 1500 q 490 1492 485 1500 l 490 857 q 498 840 498 848 l 498 834 q 494 822 498 829 q 527 800 522 822 q 566 603 559 645 q 587 578 576 581 q 648 590 607 578 q 681 562 671 590 q 697 511 697 519 l 697 498 q 627 459 697 477 q 603 420 603 446 q 640 291 622 291 l 656 291 q 705 303 697 303 q 753 221 736 303 l 753 211 q 683 170 753 191 q 659 139 659 155 l 659 135 q 697 -86 697 -83 q 599 -138 697 -120 q 564 -62 570 -138 q 527 98 536 79 q 503 106 517 106 q 410 53 410 88 l 443 -132 q 447 -174 447 -155 q 349 -224 447 -203 q 312 -121 323 -224 l 283 8 q 260 22 274 22 q 193 6 254 22 q 144 96 160 6 q 234 145 144 117 q 250 180 250 157 q 213 309 234 309 l 199 309 l 148 295 l 136 295 q 88 383 106 295 q 164 427 88 407 q 195 459 195 442 l 195 467 q 156 681 195 473 q 254 738 156 722 q 295 631 286 738 q 318 517 318 528 q 342 494 329 494 l 345 494 q 437 525 378 494 q 443 545 443 535 l 443 549 q 404 767 435 610 q 463 812 404 800 q 449 838 449 825 q 463 859 453 859 q 431 937 463 901 q 414 928 422 928 l 408 928 q 385 951 393 928 q 410 978 390 978 l 412 978 q 441 949 429 978 q 465 916 458 938 l 467 916 l 467 1492 q 476 1500 467 1495 m 445 742 q 482 707 445 713 q 513 744 513 713 q 490 773 505 773 l 490 762 q 482 754 490 760 l 476 754 q 467 762 473 754 l 467 773 l 465 773 q 445 742 445 762 m 355 342 q 394 207 369 207 q 402 205 398 207 q 473 227 447 215 q 498 260 498 237 l 498 264 q 465 391 481 391 l 455 393 l 443 393 q 355 342 355 373 z "},"$":{"ha":688,"x_min":0,"x_max":622,"o":"m 312 1499 l 317 1499 q 323 1492 319 1499 l 323 859 q 330 846 330 852 l 330 842 q 323 828 330 836 l 323 827 q 473 773 404 819 q 542 670 527 720 q 547 652 547 657 l 547 646 q 496 623 547 623 l 428 613 q 390 647 402 613 q 317 698 361 698 q 304 680 304 691 l 304 678 q 326 519 319 519 q 405 500 326 511 q 549 438 492 484 q 615 319 596 401 q 622 267 621 296 q 545 104 622 178 q 398 30 487 51 q 384 2 384 20 q 387 -45 387 -35 q 356 -68 387 -64 q 325 -41 325 -68 q 300 17 319 17 q 178 40 218 24 q 54 156 96 74 q 26 236 26 214 q 90 262 26 258 l 144 269 q 188 213 172 269 q 282 149 231 149 q 298 168 297 149 q 269 363 280 363 q 184 382 269 370 q 37 465 73 412 q 0 593 0 518 l 0 597 q 134 791 0 718 q 209 819 163 804 q 219 846 219 829 q 217 887 217 873 q 240 905 217 897 l 245 905 q 279 874 279 905 q 292 835 279 851 l 290 843 l 290 844 q 302 861 294 861 q 276 923 302 895 q 262 916 269 916 l 258 916 q 240 935 245 916 q 260 956 243 956 l 261 956 q 284 932 275 956 q 304 907 298 924 l 305 907 l 305 1492 q 312 1499 305 1495 m 288 768 q 317 740 288 745 q 341 770 341 745 q 323 792 335 792 l 323 784 q 317 778 323 782 l 312 778 q 305 784 309 778 l 305 792 l 304 792 q 288 768 288 783 m 150 597 q 178 545 155 566 q 232 525 214 525 l 237 525 q 253 541 253 528 q 232 685 243 685 q 219 688 220 688 q 155 635 184 688 q 150 597 152 619 m 345 329 q 369 164 361 164 q 382 159 377 159 l 389 159 q 469 258 469 189 l 469 265 q 439 326 469 295 q 370 350 397 350 l 357 350 q 345 329 345 344 z "},"%":{"ha":1092,"x_min":0,"x_max":972,"o":"m 488 1505 l 495 1505 q 504 1496 498 1505 l 504 730 q 513 712 513 720 l 513 705 q 504 688 513 697 l 504 670 q 838 524 680 670 q 972 203 972 376 l 972 186 q 734 -220 972 -63 q 506 -285 610 -285 l 471 -285 q 93 -90 256 -285 q 0 191 0 40 l 0 195 q 208 584 0 430 q 479 670 337 670 l 479 683 q 460 710 463 683 q 475 732 464 732 q 440 816 475 777 q 422 807 431 807 l 416 807 q 391 831 399 807 q 418 860 395 860 l 420 860 q 451 829 438 860 q 477 793 470 817 l 479 793 l 479 1496 q 488 1505 479 1499 m 504 642 q 495 619 504 619 l 488 619 q 479 637 480 619 q 467 612 473 637 q 495 579 471 579 q 524 610 518 579 q 504 642 524 632 z "},"&":{"ha":979,"x_min":142,"x_max":844,"o":"m 509 1503 l 514 1503 q 521 1497 517 1503 l 521 882 q 528 869 528 876 l 528 863 q 525 852 528 859 l 526 852 q 568 858 551 858 q 765 774 682 858 q 812 648 812 724 q 707 474 812 541 q 618 439 661 452 q 609 420 609 429 q 651 304 609 405 q 665 297 659 297 q 711 345 683 297 q 736 357 724 357 q 844 308 844 331 l 844 306 q 751 178 836 264 q 724 146 724 159 l 724 134 q 789 -26 724 128 q 800 -64 800 -52 q 783 -75 793 -75 q 625 -15 625 -28 q 597 46 616 -9 q 570 64 587 64 q 423 36 488 36 q 323 57 368 41 q 161 194 202 106 q 142 274 142 244 l 142 302 q 209 458 142 380 q 388 541 267 513 l 395 551 l 395 564 q 374 667 374 637 q 484 840 374 784 q 498 844 496 844 q 486 867 486 855 q 498 884 490 884 q 470 951 498 920 q 456 944 463 944 l 451 944 q 432 963 438 944 q 453 986 435 986 l 454 986 q 479 962 469 986 q 500 933 494 951 l 502 933 l 502 1497 q 509 1503 502 1499 m 482 785 q 514 755 482 759 q 541 786 541 760 q 521 810 534 810 l 521 802 q 514 795 521 799 l 509 795 q 502 802 506 795 l 502 810 l 500 810 q 482 785 482 801 m 523 650 q 553 567 540 567 q 568 562 553 562 q 647 602 609 566 q 670 654 670 634 l 670 672 q 612 741 670 722 l 597 743 q 528 688 546 743 q 523 650 525 680 m 300 294 l 300 281 q 335 208 300 243 q 414 172 373 172 l 430 172 q 525 202 483 172 q 528 213 528 208 l 528 216 q 460 399 528 234 q 437 409 443 409 q 316 348 369 409 q 300 294 300 318 z "},"'":{"ha":456,"x_min":3,"x_max":183,"o":"m 86 1502 l 92 1502 q 99 1495 94 1502 l 99 1156 q 106 1142 106 1149 l 106 1137 q 99 1122 106 1130 l 99 1118 l 101 1118 q 178 1105 178 1118 q 183 1072 183 1097 l 183 1006 q 161 891 183 958 q 134 825 139 825 q 106 810 134 814 l 101 810 l 81 810 q 3 979 45 810 l 5 1065 l 5 1088 q 55 1118 5 1118 l 73 1118 q 62 1140 62 1128 q 75 1158 66 1158 q 45 1228 75 1196 q 31 1221 38 1221 l 26 1221 q 5 1241 12 1221 q 27 1265 9 1265 l 29 1265 q 55 1239 45 1265 q 77 1210 71 1229 l 79 1210 l 79 1495 q 86 1502 79 1497 m 58 1054 q 92 1023 58 1027 q 119 1055 119 1028 q 99 1081 112 1081 l 99 1072 q 92 1065 99 1069 l 86 1065 q 79 1072 83 1065 l 79 1081 l 77 1081 q 58 1054 58 1071 z "},"(":{"ha":902,"x_min":95,"x_max":798,"o":"m 443 1501 l 450 1501 q 460 1491 454 1501 l 460 1019 q 469 1000 469 1008 l 469 993 q 460 973 469 984 l 460 957 q 741 819 620 957 q 798 656 798 734 l 798 20 q 655 -218 798 -115 q 465 -278 557 -278 l 436 -278 q 150 -135 266 -278 q 95 27 95 -56 l 95 654 q 257 909 95 802 q 433 957 354 957 l 433 968 q 412 998 415 968 q 429 1021 417 1021 q 391 1112 429 1070 q 372 1102 380 1102 l 364 1102 q 338 1128 347 1102 q 367 1160 343 1160 l 369 1160 q 402 1126 389 1160 q 431 1088 423 1113 l 433 1088 l 433 1491 q 443 1501 433 1495 m 460 924 q 450 900 460 900 l 443 900 q 433 919 434 900 q 419 888 419 908 q 452 857 419 862 q 481 895 481 857 q 460 924 481 912 z "},")":{"ha":1371,"x_min":88,"x_max":1219,"o":"m 661 1503 l 668 1503 q 677 1495 671 1503 l 677 911 q 686 892 686 901 l 686 886 q 677 867 686 877 l 677 846 q 779 902 772 902 l 781 902 q 855 793 802 865 q 983 806 863 793 q 1015 672 1010 683 q 1138 631 1138 637 l 1118 500 l 1219 415 l 1152 299 l 1215 181 q 1110 102 1111 104 l 1124 -31 q 997 -62 1117 -35 l 964 -190 l 962 -190 l 832 -170 q 751 -271 762 -266 l 644 -201 q 531 -264 633 -203 q 454 -153 513 -246 q 325 -167 336 -167 l 292 -35 q 170 7 170 3 l 188 139 q 88 224 90 220 l 155 338 q 93 459 106 429 q 197 538 193 530 q 183 670 183 654 l 311 703 q 348 830 341 830 l 473 806 q 554 911 551 911 l 652 848 l 652 862 q 631 890 633 862 q 647 913 635 913 q 610 1002 647 961 q 591 992 600 992 l 584 992 q 559 1017 567 992 q 587 1048 564 1048 l 589 1048 q 621 1015 608 1048 q 649 978 642 1002 l 652 978 l 652 1495 q 661 1503 652 1498 m 677 765 q 668 742 677 742 l 661 742 q 652 760 652 742 q 637 734 645 760 q 668 700 643 700 q 698 732 692 700 q 677 765 698 755 z "},"*":{"ha":439,"x_min":0,"x_max":374,"o":"m 179 1495 l 184 1495 q 191 1489 186 1495 l 191 1116 q 197 1102 197 1108 l 197 1097 q 191 1084 197 1092 l 191 1072 l 195 1072 q 228 1040 228 1072 l 228 1015 q 239 949 228 949 l 249 948 l 252 948 l 335 975 l 341 975 q 374 918 362 975 l 374 916 q 293 873 374 895 q 269 848 269 865 q 311 785 269 842 q 323 761 323 768 q 278 715 323 741 q 267 712 271 712 q 221 762 256 712 q 184 798 198 798 l 180 798 q 122 722 158 780 q 101 713 111 713 q 50 753 62 730 q 49 760 49 755 q 101 840 49 772 q 104 850 104 846 q 41 884 104 871 q 0 916 0 901 q 34 975 11 975 q 120 948 43 975 l 127 948 q 143 977 143 948 l 143 1031 l 144 1040 q 143 1047 143 1044 q 166 1069 149 1069 q 172 1072 169 1072 l 172 1081 q 158 1101 160 1081 q 169 1117 161 1117 q 143 1179 169 1150 q 130 1173 136 1173 l 125 1173 q 107 1190 113 1173 q 127 1211 111 1211 l 128 1211 q 151 1188 142 1211 q 171 1162 165 1179 l 172 1162 l 172 1489 q 179 1495 172 1492 m 191 1050 q 184 1034 191 1034 l 179 1034 q 172 1047 173 1034 q 163 1029 168 1047 q 184 1005 166 1005 q 205 1027 201 1005 q 191 1050 205 1044 z "},"+":{"ha":727,"x_min":95,"x_max":665,"o":"m 372 1495 l 376 1495 q 384 1489 379 1495 l 384 889 q 391 876 391 882 l 391 871 q 384 857 391 865 l 384 850 l 385 850 q 440 821 440 850 q 441 799 441 812 l 441 652 q 469 625 441 625 l 619 625 q 663 597 663 625 q 665 531 663 573 q 640 505 658 505 q 600 503 616 503 l 483 503 q 441 478 441 503 l 441 328 q 421 283 441 283 q 402 278 421 281 q 323 295 323 278 q 320 314 320 302 l 320 456 q 296 503 320 503 l 161 503 q 100 519 100 503 q 95 559 97 519 q 111 621 95 621 q 136 625 126 625 l 277 625 q 320 654 320 625 l 320 819 q 355 848 320 848 l 365 848 l 365 854 q 349 874 352 854 q 361 891 353 891 q 334 956 361 926 q 320 949 327 949 l 315 949 q 296 968 302 949 q 317 990 300 990 l 319 990 q 342 966 333 990 q 363 939 357 957 l 365 939 l 365 1489 q 372 1495 365 1491 m 384 821 q 376 804 384 804 l 372 804 q 365 818 365 804 q 355 799 360 818 q 376 773 358 773 q 399 797 395 773 q 384 821 399 814 z "},",":{"ha":378,"x_min":41,"x_max":208,"o":"m 130 1502 l 134 1502 q 140 1496 136 1502 l 140 178 q 145 163 145 164 l 145 161 q 140 146 145 153 l 140 137 l 174 137 q 205 121 198 137 q 207 114 207 118 l 207 22 q 208 -31 207 -1 q 170 -134 208 -76 q 65 -197 130 -178 l 63 -197 q 42 -172 45 -197 l 42 -151 q 83 -106 42 -128 q 115 -52 109 -79 q 71 -26 115 -26 q 41 11 41 -26 l 41 100 q 78 137 41 137 l 123 137 l 123 142 q 106 159 110 142 l 106 163 q 118 178 106 172 q 92 240 118 212 q 84 233 92 237 l 76 233 q 58 251 58 236 l 58 254 q 76 272 58 268 l 79 272 q 99 251 94 272 q 121 220 121 233 l 123 220 l 123 1496 q 130 1502 123 1499 m 105 85 q 134 60 110 60 q 158 85 153 60 q 144 109 158 100 l 140 109 q 134 96 140 96 l 130 96 q 121 109 125 96 q 105 85 105 100 z "},"-":{"ha":454,"x_min":68,"x_max":388,"o":"m 225 1497 l 231 1497 l 237 1493 q 238 913 238 920 q 240 617 238 840 q 246 604 244 617 l 246 602 q 241 588 246 594 l 241 583 l 354 583 q 387 555 387 583 q 388 538 388 550 l 388 496 q 363 456 388 456 q 343 454 356 454 l 97 454 q 68 496 68 454 l 68 517 q 79 576 68 576 q 100 583 79 582 l 220 583 l 220 585 q 208 601 210 585 l 208 604 q 219 620 208 613 q 193 681 219 653 l 192 681 q 180 675 189 675 l 176 675 q 158 692 163 675 q 177 713 161 713 q 198 692 198 711 q 220 665 208 692 l 222 665 q 220 705 220 696 q 219 1493 220 802 l 225 1497 m 241 551 q 235 538 240 538 l 229 538 q 222 549 222 541 q 212 532 218 549 q 233 507 216 507 q 254 530 250 507 q 243 551 254 544 l 241 551 z "},"­":{"ha":454,"x_min":68,"x_max":388,"o":"m 225 1497 l 231 1497 l 237 1493 q 238 913 238 920 q 240 617 238 840 q 246 604 244 617 l 246 602 q 241 588 246 594 l 241 583 l 354 583 q 387 555 387 583 q 388 538 388 550 l 388 496 q 363 456 388 456 q 343 454 356 454 l 97 454 q 68 496 68 454 l 68 517 q 79 576 68 576 q 100 583 79 582 l 220 583 l 220 585 q 208 601 210 585 l 208 604 q 219 620 208 613 q 193 681 219 653 l 192 681 q 180 675 189 675 l 176 675 q 158 692 163 675 q 177 713 161 713 q 198 692 198 711 q 220 665 208 692 l 222 665 q 220 705 220 696 q 219 1493 220 802 l 225 1497 m 241 551 q 235 538 240 538 l 229 538 q 222 549 222 541 q 212 532 218 549 q 233 507 216 507 q 254 530 250 507 q 243 551 254 544 l 241 551 z "},".":{"ha":587,"x_min":47,"x_max":219,"o":"m 139 1504 l 144 1504 q 151 1497 146 1504 l 151 164 q 156 147 156 149 l 156 146 q 151 131 156 137 l 151 121 l 189 121 q 219 94 219 121 l 219 -12 q 204 -43 219 -43 q 171 -47 204 -46 l 94 -47 q 49 -22 49 -47 q 47 7 47 -7 l 47 87 q 67 121 47 113 l 132 121 l 132 125 q 116 144 119 125 l 116 147 q 127 164 116 157 q 101 227 127 199 q 92 220 100 225 l 84 220 q 66 239 66 223 l 66 242 q 84 260 66 256 l 87 260 q 107 239 102 260 q 131 208 131 220 l 132 208 l 132 1497 q 139 1504 132 1500 m 114 67 q 144 41 119 41 q 169 67 163 41 q 154 92 169 83 l 151 92 q 144 79 151 79 l 139 79 q 131 92 135 79 q 114 67 114 83 z "},"/":{"ha":386,"x_min":9,"x_max":430,"o":"m 63 -34 l 9 -34 l 376 972 l 430 972 l 63 -34 z "},":":{"ha":378,"x_min":87,"x_max":257,"o":"m 98 113 l 154 170 q 174 180 164 180 q 195 169 182 180 l 249 111 q 257 91 257 100 q 248 70 257 81 l 193 10 q 174 -3 180 -3 q 154 6 163 -3 l 94 75 q 87 92 87 83 q 98 113 87 102 m 98 583 l 154 640 q 174 650 164 650 q 195 639 182 650 l 249 581 q 257 561 257 570 q 248 540 257 551 l 193 480 q 174 467 180 467 q 154 476 163 467 l 94 545 q 87 562 87 553 q 98 583 87 572 z "},";":{"ha":378,"x_min":81,"x_max":257,"o":"m 98 583 l 154 640 q 174 649 164 649 q 195 638 182 649 l 249 580 q 257 560 257 569 q 248 539 257 550 l 193 479 q 174 466 180 466 q 154 475 163 466 l 94 544 q 87 562 87 553 q 98 583 87 572 m 161 175 q 221 131 191 175 q 252 28 252 86 q 203 -126 252 -46 q 109 -205 155 -205 l 109 -176 q 168 -47 159 -147 q 81 62 168 33 l 81 90 l 161 175 z "},";":{"ha":378,"x_min":81,"x_max":257,"o":"m 98 583 l 154 640 q 174 649 164 649 q 195 638 182 649 l 249 580 q 257 560 257 569 q 248 539 257 550 l 193 479 q 174 466 180 466 q 154 475 163 466 l 94 544 q 87 562 87 553 q 98 583 87 572 m 161 175 q 221 131 191 175 q 252 28 252 86 q 203 -126 252 -46 q 109 -205 155 -205 l 109 -176 q 168 -47 159 -147 q 81 62 168 33 l 81 90 l 161 175 z "},"<":{"ha":688,"x_min":59,"x_max":629,"o":"m 629 728 l 205 485 l 629 244 l 629 131 l 59 457 l 59 513 l 629 842 l 629 728 z "},"=":{"ha":1424,"x_min":176,"x_max":1246,"o":"m 714 1499 l 722 1499 q 731 1490 725 1499 l 731 839 q 741 819 741 828 l 741 812 q 731 792 741 803 l 731 773 q 1099 612 924 773 q 1246 260 1246 449 l 1246 240 q 984 -208 1246 -34 q 733 -278 848 -278 l 694 -278 q 279 -64 458 -278 q 176 245 176 79 l 176 250 q 405 678 176 509 q 704 773 547 773 l 704 787 q 682 817 686 787 q 699 841 687 841 q 661 933 699 891 q 641 924 650 924 l 633 924 q 607 951 615 924 q 636 982 612 982 l 639 982 q 673 948 659 982 q 702 909 694 935 l 704 909 l 704 1490 q 714 1499 704 1493 m 731 741 q 722 717 731 717 l 714 717 q 704 736 705 717 q 690 709 698 736 q 722 673 695 673 q 753 707 747 673 q 731 741 753 731 m 753 562 q 748 539 753 551 l 753 537 q 763 551 759 551 l 774 551 q 780 547 780 551 l 780 484 q 768 479 780 479 l 768 473 l 811 473 l 811 479 q 799 484 799 479 l 799 547 q 804 551 800 551 l 816 551 q 823 539 822 551 l 828 539 l 828 545 l 831 562 l 819 559 l 765 559 l 753 562 m 363 479 l 363 473 l 393 473 l 393 479 q 383 484 383 479 q 393 503 389 503 l 410 503 q 420 481 420 500 l 420 479 l 412 479 l 412 473 l 451 473 l 451 479 q 422 537 437 479 q 415 559 418 537 l 412 559 q 380 496 400 559 q 363 479 374 479 m 483 559 l 483 554 q 492 549 492 554 l 492 484 q 480 479 492 479 l 480 473 l 522 473 l 522 479 q 512 484 512 479 l 512 510 q 517 515 513 515 l 527 515 q 534 505 534 515 l 539 505 l 539 532 l 534 532 q 527 522 534 522 l 517 522 q 512 527 512 522 l 512 547 q 517 551 513 551 l 532 551 q 544 539 533 551 l 546 539 l 546 559 l 483 559 m 553 517 l 553 515 q 595 473 559 473 q 644 515 644 473 l 644 517 q 595 559 644 556 q 553 517 553 551 m 653 559 l 653 554 q 665 547 665 553 l 665 493 q 653 479 665 479 l 653 473 l 687 473 q 673 498 673 481 l 673 532 q 677 537 673 537 q 728 473 710 490 q 733 479 733 473 l 733 539 q 745 554 733 554 l 745 559 l 714 559 l 714 554 q 726 527 726 554 l 726 505 l 724 505 q 680 559 722 505 l 653 559 m 867 554 q 877 547 877 550 l 877 484 q 867 479 877 479 l 867 473 l 909 473 q 940 498 940 477 q 923 522 940 509 q 935 539 935 526 q 901 559 935 559 l 872 559 q 867 554 867 558 m 943 559 l 943 554 q 975 505 959 554 l 975 484 q 964 479 975 479 l 964 473 l 1006 473 l 1006 479 q 994 484 994 479 l 994 505 q 1028 554 1010 554 l 1028 559 l 999 559 l 999 554 q 1006 549 1006 554 q 989 520 994 520 q 977 549 977 542 l 977 554 l 981 554 l 981 559 l 943 559 m 590 551 l 600 551 q 621 522 621 551 l 621 503 q 602 481 621 481 l 597 481 q 575 508 575 484 l 575 525 q 590 551 575 544 m 899 551 l 909 551 q 916 545 912 551 l 916 530 q 901 522 913 522 l 899 522 q 894 527 894 522 l 894 547 q 899 551 895 551 m 403 532 l 405 532 q 410 510 410 516 l 397 510 l 393 513 q 403 532 399 532 m 901 517 q 921 496 921 517 q 911 481 916 481 l 901 481 q 894 496 894 484 l 894 513 q 901 517 894 517 m 391 277 l 391 269 l 432 269 q 437 274 437 269 q 422 281 422 277 q 434 313 427 313 l 463 313 q 478 279 469 313 q 463 272 463 276 l 468 269 l 524 269 l 524 272 q 505 286 505 282 l 466 401 l 463 401 q 422 315 446 401 q 393 277 408 277 l 391 277 m 943 364 l 943 361 q 989 315 943 340 q 999 296 999 305 q 979 277 999 277 l 977 277 q 940 309 958 277 l 935 306 q 969 267 935 267 l 981 267 q 1025 306 1025 272 q 979 355 1025 336 q 967 376 967 364 l 967 379 q 979 391 967 382 l 994 391 q 1016 367 1000 391 l 1021 367 l 1021 372 q 1004 401 1021 401 l 984 401 q 943 364 943 396 m 230 393 q 247 384 247 389 l 247 284 q 230 272 247 281 l 235 269 l 288 269 q 293 274 293 269 q 276 284 276 279 l 276 328 q 281 332 277 332 l 325 332 q 330 328 330 332 l 330 284 q 315 272 330 281 l 320 269 l 371 269 q 376 274 376 269 q 359 284 359 280 l 359 384 q 374 391 359 391 l 374 398 l 315 398 l 315 391 q 330 384 330 391 l 330 347 q 325 342 330 342 l 281 342 q 276 347 276 342 l 276 384 q 291 396 276 387 l 286 398 l 235 398 q 230 393 230 397 m 539 396 l 539 393 q 553 381 553 384 l 553 286 q 536 272 553 283 l 536 269 l 592 269 q 597 274 597 269 q 580 284 580 280 l 580 320 q 585 326 581 326 l 592 326 q 627 277 618 277 q 648 269 627 271 l 663 269 q 668 274 668 269 q 621 332 646 274 q 644 367 644 342 q 590 398 644 398 l 551 398 l 539 396 m 682 398 l 682 396 q 697 384 697 387 l 697 284 q 677 274 697 278 l 677 269 l 785 269 l 792 301 l 787 303 q 765 279 769 279 l 741 279 q 726 286 728 279 l 726 328 q 731 332 727 332 l 743 332 q 760 315 760 332 l 768 315 l 768 359 l 760 359 q 751 342 760 347 l 731 342 q 726 347 726 342 l 726 384 q 731 389 727 389 l 753 389 q 774 367 774 385 l 777 367 q 782 372 782 367 q 780 398 780 388 l 682 398 m 811 398 l 811 396 q 826 384 826 387 l 826 284 q 806 274 826 278 l 806 269 l 913 269 l 921 301 l 916 303 q 894 279 898 279 l 869 279 q 855 286 857 279 l 855 328 q 860 332 856 332 l 872 332 q 889 315 889 332 l 897 315 l 897 359 l 889 359 q 880 342 889 347 l 860 342 q 855 347 855 342 l 855 384 q 860 389 856 389 l 882 389 q 904 367 904 385 l 906 367 q 911 372 911 367 q 909 398 909 388 l 811 398 m 1050 393 q 1067 384 1067 389 l 1067 284 q 1050 272 1067 281 l 1055 269 l 1108 269 q 1113 274 1113 269 q 1096 284 1096 279 l 1096 328 q 1101 332 1097 332 l 1145 332 q 1149 328 1149 332 l 1149 284 q 1135 272 1149 281 l 1140 269 l 1191 269 q 1196 274 1196 269 q 1179 284 1179 280 l 1179 384 q 1194 391 1179 391 l 1194 398 l 1135 398 l 1135 391 q 1149 384 1149 391 l 1149 347 q 1145 342 1149 342 l 1101 342 q 1096 347 1096 342 l 1096 384 q 1111 396 1096 387 l 1105 398 l 1055 398 q 1050 393 1050 397 m 585 389 l 597 389 q 614 361 614 378 q 592 335 612 335 l 585 335 q 580 340 580 335 l 580 384 q 585 389 581 389 m 446 361 l 451 361 l 463 326 l 458 323 l 437 323 l 437 326 q 446 361 437 333 m 602 148 l 604 148 q 627 153 621 153 l 629 153 q 670 116 670 146 q 668 106 668 112 q 690 111 672 109 q 763 87 754 87 q 780 104 763 90 q 785 96 785 104 q 760 33 760 56 l 774 33 q 802 96 779 39 l 806 99 l 809 99 q 816 87 813 99 q 794 33 800 58 q 814 21 814 27 l 814 19 q 809 14 814 14 q 789 16 801 16 l 787 2 l 787 -30 q 809 -59 787 -59 l 814 -59 q 852 43 852 -9 q 743 182 852 138 q 699 186 719 186 q 602 148 646 186 m 592 111 l 592 106 q 633 45 592 94 l 636 33 q 583 -13 636 -3 q 563 -8 575 -13 l 563 -13 q 694 -105 610 -105 l 711 -105 q 794 -74 760 -105 q 770 -28 774 -74 q 774 21 770 -15 l 768 21 q 751 -3 753 21 q 699 -52 724 -52 l 694 -52 q 677 -42 682 -52 l 677 -35 q 745 31 677 6 q 755 70 755 62 q 687 99 747 70 l 685 99 q 658 79 658 99 q 694 60 666 60 q 719 65 701 60 l 722 60 q 697 50 711 50 q 651 85 651 50 l 639 82 l 624 82 q 619 87 619 82 l 619 90 q 639 87 633 87 q 656 111 656 94 q 636 143 656 134 l 619 143 q 592 111 597 143 m 256 109 q 252 114 252 109 l 252 116 q 256 131 252 123 l 252 131 q 244 123 248 131 q 259 99 244 109 l 262 99 q 281 128 281 99 l 286 128 q 291 123 291 127 l 291 119 l 286 111 l 286 109 q 296 116 296 113 l 296 119 q 283 138 296 132 l 273 138 q 262 111 269 138 l 256 109 m 575 119 q 553 36 553 75 q 580 -3 553 -3 l 590 -3 q 619 28 614 -3 q 580 90 619 43 q 578 119 578 97 l 575 119 m 1093 58 q 1091 60 1093 60 l 1091 41 q 1122 24 1103 41 l 1120 19 l 1125 19 q 1135 41 1135 37 l 1130 38 q 1101 58 1103 51 q 1111 67 1101 62 q 1137 45 1137 56 q 1152 67 1140 45 l 1149 67 l 1145 65 q 1118 82 1122 75 l 1118 87 q 1122 92 1118 92 l 1130 92 q 1152 73 1152 82 q 1166 94 1158 73 l 1164 94 l 1159 92 q 1128 106 1134 106 l 1122 106 q 1111 79 1115 106 q 1096 58 1100 79 l 1093 58 m 267 77 q 288 55 271 55 l 291 55 l 291 58 q 279 75 279 58 l 279 77 q 288 87 279 81 l 293 87 q 303 65 303 68 l 308 65 q 315 73 311 65 l 315 79 q 298 102 315 94 l 291 102 q 267 77 267 97 m 300 92 l 303 92 q 310 85 307 92 l 310 82 q 305 77 310 77 q 296 90 300 78 l 300 92 m 291 38 q 310 16 291 16 l 315 16 l 315 19 q 303 36 303 19 q 313 48 307 47 q 327 26 318 48 l 332 26 q 339 41 339 28 q 325 60 339 52 l 313 60 q 291 38 291 57 m 325 53 l 327 53 q 334 45 331 53 q 327 38 334 42 q 320 50 321 38 l 325 53 m 371 48 q 317 4 369 38 q 310 7 313 7 q 327 -16 321 -12 q 354 12 327 -1 q 388 36 382 36 q 374 48 388 39 l 371 48 m 1059 4 l 1059 -5 q 1084 -22 1071 -22 q 1108 4 1108 -16 l 1108 14 q 1086 31 1095 31 q 1059 4 1059 26 m 690 -30 q 704 -42 690 -42 q 743 16 723 -42 l 739 16 q 690 -30 707 16 m 1074 19 q 1101 2 1087 19 l 1101 -5 q 1093 -10 1101 -10 q 1067 14 1067 -5 q 1074 19 1067 19 m 356 2 l 354 -3 l 354 -5 l 363 -8 q 371 -5 368 -5 l 376 -13 q 366 -22 376 -17 l 363 -22 q 342 -13 351 -13 l 339 -13 q 332 -22 336 -13 l 356 -54 l 363 -54 l 361 -50 l 361 -47 q 386 -18 386 -25 q 356 2 376 2 m 1030 -33 l 1030 -35 q 1045 -57 1030 -48 l 1062 -57 q 1076 -42 1065 -57 l 1076 -28 l 1074 -28 q 1055 -45 1074 -43 q 1038 -30 1044 -41 l 1038 -22 q 1055 -16 1038 -16 l 1055 -8 q 1050 -5 1050 -8 q 1030 -33 1030 -16 m 351 -22 l 359 -22 l 359 -28 q 351 -35 359 -31 l 349 -35 q 345 -30 345 -35 q 351 -22 345 -26 m 432 -28 q 388 -81 432 -38 l 386 -81 q 400 -96 386 -84 l 403 -96 q 422 -66 403 -83 l 425 -66 q 434 -76 429 -66 q 408 -100 418 -100 q 427 -117 413 -110 q 446 -83 427 -104 l 446 -76 q 427 -59 446 -73 q 451 -33 429 -59 l 451 -30 q 432 -28 444 -28 m 967 -35 q 960 -50 967 -41 l 960 -52 q 1008 -100 972 -52 l 1008 -103 l 1006 -108 l 1008 -108 q 1028 -91 1028 -92 l 1028 -88 l 1023 -91 l 1021 -91 l 969 -35 l 967 -35 m 368 -54 q 366 -62 368 -57 q 376 -71 368 -71 q 383 -68 380 -68 l 383 -59 q 378 -54 383 -54 l 368 -54 m 945 -66 l 945 -71 q 950 -76 946 -76 l 955 -76 q 960 -71 960 -76 l 960 -66 q 955 -62 960 -62 l 950 -62 q 945 -66 945 -62 m 1028 -71 l 1028 -81 q 1035 -83 1030 -81 q 1045 -74 1042 -81 q 1042 -66 1042 -69 l 1033 -66 q 1028 -71 1028 -67 m 967 -79 l 958 -96 q 981 -127 981 -104 l 984 -127 q 1004 -110 1004 -113 l 1001 -110 q 994 -113 996 -113 q 967 -79 987 -98 m 449 -98 l 454 -100 l 471 -98 q 473 -105 473 -102 q 466 -115 469 -115 q 446 -110 457 -110 l 441 -110 q 434 -120 438 -110 q 456 -134 434 -130 q 471 -146 456 -146 l 475 -146 l 475 -144 q 468 -137 468 -144 q 486 -105 486 -115 q 466 -93 479 -93 l 454 -93 q 449 -98 449 -94 m 921 -127 l 921 -130 l 926 -130 q 933 -110 930 -130 l 938 -110 q 945 -117 941 -110 l 945 -122 q 933 -144 933 -135 l 933 -146 q 945 -154 933 -152 q 975 -134 959 -142 q 977 -127 977 -130 l 972 -130 l 969 -130 q 940 -100 951 -100 q 921 -127 921 -110 m 495 -115 q 473 -149 491 -149 l 473 -151 q 500 -163 497 -163 q 495 -154 495 -158 q 512 -130 505 -132 q 517 -137 517 -130 l 524 -137 q 529 -132 529 -137 l 529 -130 l 512 -120 q 515 -117 515 -120 q 495 -115 509 -117 m 456 -115 q 463 -122 460 -115 l 454 -130 q 449 -125 449 -130 l 449 -122 q 456 -115 449 -119 m 855 -149 q 848 -146 850 -146 q 799 -161 848 -158 q 789 -181 789 -172 q 802 -193 793 -193 l 802 -200 q 797 -205 802 -205 l 806 -217 q 802 -222 802 -218 l 802 -229 q 816 -237 804 -237 q 850 -210 850 -233 q 843 -198 848 -198 l 840 -198 q 811 -203 828 -198 l 809 -198 q 833 -174 833 -187 q 831 -166 831 -169 q 843 -161 839 -161 q 855 -191 855 -184 q 852 -198 852 -195 q 877 -188 871 -188 l 877 -186 q 857 -154 863 -186 l 865 -149 l 867 -149 q 884 -181 873 -149 q 882 -183 882 -181 l 884 -183 q 904 -176 898 -176 l 904 -174 q 884 -142 893 -174 l 892 -137 l 894 -137 q 911 -166 901 -137 q 909 -174 909 -171 q 933 -163 926 -163 l 933 -159 l 928 -161 q 901 -125 908 -125 q 863 -142 876 -142 q 855 -149 863 -145 m 945 -127 l 952 -127 l 955 -140 l 950 -142 l 947 -142 q 943 -134 943 -142 q 945 -127 945 -130 m 651 -140 q 656 -146 653 -146 q 641 -212 652 -212 l 641 -215 q 668 -217 668 -215 l 668 -215 l 663 -208 q 673 -176 665 -176 q 682 -186 682 -178 q 675 -217 682 -208 q 699 -220 691 -217 l 699 -217 l 694 -210 l 694 -208 l 697 -178 l 687 -171 l 680 -171 l 668 -174 l 668 -159 l 670 -134 q 651 -140 663 -134 m 517 -161 q 539 -183 520 -183 l 541 -183 l 553 -181 l 553 -176 q 546 -178 549 -178 q 532 -166 536 -175 l 532 -157 q 536 -151 532 -151 q 561 -161 553 -161 l 563 -157 l 563 -149 q 551 -137 563 -146 l 539 -137 q 517 -161 520 -137 m 549 -140 l 553 -146 l 553 -151 l 544 -151 q 539 -146 539 -151 l 539 -142 q 549 -140 540 -142 m 561 -178 q 585 -200 561 -197 l 600 -195 l 600 -191 l 595 -193 l 592 -193 q 575 -183 579 -193 l 575 -174 q 580 -169 576 -169 q 604 -174 587 -174 l 607 -169 q 585 -151 602 -151 q 561 -178 566 -151 m 707 -198 q 743 -234 710 -234 q 768 -229 749 -234 l 768 -227 l 751 -229 l 748 -229 q 716 -200 716 -225 l 716 -198 q 753 -159 720 -159 l 755 -159 q 780 -183 780 -163 l 780 -186 q 760 -208 776 -208 l 758 -203 q 768 -171 768 -178 l 763 -171 q 726 -210 726 -186 q 733 -212 731 -212 q 748 -203 736 -212 l 751 -203 l 751 -210 l 760 -210 q 785 -193 776 -210 l 785 -181 q 753 -154 785 -159 q 707 -198 707 -161 m 585 -157 l 590 -157 q 595 -161 595 -157 l 595 -163 q 590 -169 595 -169 q 580 -161 580 -165 q 585 -157 581 -157 m 610 -176 q 624 -195 610 -178 l 624 -200 q 619 -205 624 -205 l 616 -205 q 607 -191 607 -200 l 604 -191 l 604 -203 q 627 -210 604 -210 q 639 -193 639 -207 q 624 -174 639 -190 l 624 -171 q 629 -166 625 -166 q 639 -178 639 -171 l 641 -178 l 641 -169 q 636 -163 641 -163 l 624 -163 q 610 -176 611 -163 m 809 -163 l 811 -163 q 821 -186 817 -163 l 814 -191 q 804 -181 810 -191 l 804 -169 q 809 -163 805 -163 m 753 -178 l 758 -181 q 741 -205 749 -203 l 739 -205 l 739 -203 q 753 -178 739 -188 m 831 -210 l 833 -210 q 840 -217 837 -210 l 840 -220 q 831 -229 840 -224 l 821 -229 q 811 -220 817 -229 l 811 -217 q 831 -210 813 -210 z "},">":{"ha":688,"x_min":59,"x_max":629,"o":"m 59 842 l 629 513 l 629 457 l 59 131 l 59 244 l 483 485 l 59 728 l 59 842 z "},"?":{"ha":824,"x_min":75,"x_max":663,"o":"m 427 1510 l 433 1510 q 440 1503 436 1510 l 440 795 q 448 781 448 787 l 448 774 q 440 760 448 768 l 440 758 q 568 711 504 751 q 663 513 663 637 q 563 316 663 420 q 522 206 522 263 l 528 171 q 470 134 528 144 l 470 58 l 472 58 q 541 73 532 73 q 574 30 566 73 q 600 -81 600 -71 q 532 -120 600 -111 q 439 -142 475 -137 q 397 -52 413 -142 q 383 14 383 -3 q 435 49 383 39 q 444 60 435 54 q 427 84 444 84 q 404 104 404 84 l 404 108 q 407 119 404 113 l 405 119 q 394 117 404 119 q 364 145 372 117 q 357 199 357 182 l 357 225 q 440 407 357 313 q 475 494 475 458 q 424 600 475 560 q 381 611 401 611 q 256 528 288 611 q 251 459 253 510 q 253 442 253 452 q 177 404 253 414 q 102 387 123 387 q 75 455 75 387 q 199 703 75 612 q 404 760 304 760 l 411 760 q 404 779 404 768 q 416 797 407 797 q 387 867 416 836 q 372 860 378 860 l 366 860 q 346 880 352 860 q 368 905 349 905 l 370 905 q 396 879 385 905 q 418 849 412 868 l 420 849 l 420 1503 q 427 1510 420 1506 m 399 691 q 433 660 399 665 q 461 693 461 665 q 440 719 454 719 l 440 709 q 433 703 440 707 l 427 703 q 420 709 425 703 l 420 719 l 418 719 q 399 691 399 709 m 427 205 q 450 177 435 177 l 450 188 q 457 195 450 191 l 463 195 q 470 188 466 195 l 470 178 l 472 178 q 489 205 489 189 q 461 235 484 235 l 454 235 q 427 205 434 235 m 439 127 q 448 108 448 116 l 448 104 l 446 95 l 450 93 l 450 128 l 439 127 m 470 14 l 470 -7 q 465 -13 470 -9 l 457 -13 q 450 9 450 -13 q 437 -9 440 5 q 470 -33 441 -33 q 500 -9 500 -28 q 475 14 494 14 l 470 14 z "},"@":{"ha":1063,"x_min":54,"x_max":969,"o":"m 532 1506 l 538 1506 q 546 1498 541 1506 l 546 872 q 553 857 553 864 l 553 851 q 546 836 553 844 l 546 815 q 549 812 547 812 q 848 680 729 812 q 916 543 916 587 q 933 445 928 534 l 933 443 q 894 275 933 348 q 755 133 840 170 q 712 123 731 123 l 707 123 q 650 144 694 123 l 644 144 q 610 104 631 144 q 493 46 551 46 l 477 46 q 302 150 371 46 q 262 288 268 208 q 302 469 262 405 q 496 591 380 591 q 580 570 530 591 l 583 570 q 606 610 597 570 q 672 637 606 625 l 684 637 q 707 521 702 637 l 731 273 q 755 250 743 250 l 763 250 q 827 313 797 250 q 846 396 846 356 q 686 683 846 589 q 551 715 626 715 l 532 715 q 275 615 399 715 q 172 392 172 509 l 172 320 q 220 163 185 226 q 317 46 253 102 q 515 -22 416 -22 q 769 56 653 -22 q 875 169 846 118 q 956 205 904 205 q 969 192 966 205 q 859 10 960 123 q 614 -113 742 -92 q 542 -122 597 -117 q 215 -11 343 -122 q 111 122 136 62 q 54 347 54 220 q 194 673 54 526 q 417 798 296 768 q 525 814 480 814 l 525 833 q 508 855 511 833 q 521 874 512 874 q 491 946 521 913 q 476 939 483 939 l 470 939 q 450 959 456 939 q 472 984 453 984 l 474 984 q 500 957 490 984 q 523 927 517 947 l 525 927 l 525 1498 q 532 1506 525 1501 m 504 766 q 538 734 504 739 q 566 768 566 740 q 546 795 559 795 l 546 785 q 538 778 546 782 l 532 778 q 525 785 530 778 l 525 795 l 523 795 q 504 766 504 784 m 385 307 q 417 209 385 258 q 484 173 450 173 l 504 173 q 606 262 563 173 q 618 334 618 296 l 618 349 q 532 475 618 446 q 503 477 513 477 q 425 430 467 477 q 385 307 385 378 z "},"A":{"ha":803,"x_min":0,"x_max":789,"o":"m 395 1489 l 399 1489 q 407 1482 402 1489 l 407 861 q 414 847 414 854 l 414 842 q 410 831 414 837 l 465 831 q 513 766 497 831 q 764 92 606 524 q 789 20 778 66 q 761 0 789 3 q 673 2 743 0 q 637 0 646 0 q 588 71 604 0 q 543 178 553 176 q 475 186 534 186 l 275 186 q 225 155 235 186 q 168 7 180 17 q 132 0 149 0 l 86 0 q 68 2 78 0 q 53 0 62 0 l 41 0 q 0 18 0 0 l 0 24 q 157 442 0 38 q 296 812 210 589 q 331 831 311 831 l 375 831 q 372 845 372 838 q 384 863 375 863 q 355 930 384 900 q 343 923 353 923 l 333 923 q 319 942 319 930 l 319 945 q 338 965 319 960 l 342 965 q 363 942 358 965 q 386 912 372 942 l 387 912 l 387 1482 q 395 1489 387 1485 m 364 745 q 396 717 370 717 q 422 745 416 717 q 407 771 422 761 q 399 759 407 759 l 395 759 q 386 773 390 759 q 364 745 364 763 m 391 599 q 363 541 374 589 q 294 343 294 358 q 328 322 294 322 q 375 321 338 321 l 437 321 q 490 334 490 321 l 490 342 q 430 526 481 388 q 391 599 409 599 z "},"B":{"ha":775,"x_min":0,"x_max":768,"o":"m 226 1486 l 231 1486 q 238 1478 234 1486 l 238 817 q 245 803 245 810 l 245 798 q 240 785 245 791 l 240 783 l 242 783 q 618 711 548 732 q 709 662 657 697 q 761 576 755 616 q 768 534 768 542 q 656 338 768 389 q 645 321 645 330 q 682 280 645 309 q 738 142 738 220 l 738 135 q 640 -66 738 7 q 492 -109 564 -109 l 466 -109 q 417 -103 430 -109 q 412 -105 414 -105 q 16 -31 49 -39 q 0 -6 0 -23 l 0 -5 q 142 780 0 5 q 168 796 152 796 q 204 791 180 796 l 202 800 l 202 802 q 215 819 206 819 q 186 887 215 857 q 174 880 183 880 l 163 880 q 149 900 149 888 l 149 903 q 168 923 149 918 l 172 923 q 193 900 189 923 q 217 869 203 900 l 218 869 l 218 1478 q 226 1486 218 1481 m 195 699 q 227 671 201 671 q 254 699 248 671 q 238 726 254 715 q 231 713 238 713 l 226 713 q 217 728 221 713 q 195 699 195 718 m 272 457 q 288 429 272 435 q 486 395 453 395 q 568 439 536 395 q 582 500 582 473 q 456 601 582 580 l 328 622 q 290 563 290 622 q 272 457 272 483 m 208 99 q 322 58 208 69 q 428 42 391 42 l 451 42 q 551 119 528 42 q 555 146 555 136 l 555 160 q 478 262 555 234 q 276 303 456 271 l 272 302 l 265 303 q 233 255 239 303 q 208 99 208 113 z "},"C":{"ha":865,"x_min":27,"x_max":850,"o":"m 400 1494 l 406 1494 q 413 1487 408 1494 l 413 851 q 420 837 420 844 l 420 831 q 413 817 420 825 l 413 804 q 460 807 458 806 q 747 659 630 807 q 780 589 780 602 l 780 583 q 629 537 780 555 l 627 537 q 585 576 606 537 q 429 644 524 644 q 260 557 332 644 q 214 389 214 496 l 214 378 q 216 370 214 374 l 214 366 q 251 216 224 275 q 325 111 273 161 q 477 60 378 60 q 600 102 534 60 q 668 251 668 168 q 703 300 668 300 q 829 326 813 326 q 850 291 850 320 l 850 260 q 740 5 850 114 q 453 -102 612 -102 q 126 60 252 -102 q 42 245 75 130 q 27 365 27 321 l 27 387 q 165 701 27 577 q 349 793 248 772 q 393 800 380 800 l 393 812 q 376 835 378 812 q 389 853 380 853 q 359 923 389 892 q 347 916 357 916 l 336 916 q 321 936 321 924 l 321 939 q 341 960 321 954 l 345 960 q 367 936 361 960 q 391 905 377 936 l 393 905 l 393 1487 q 400 1494 393 1489 m 372 730 q 406 701 378 701 q 433 730 427 701 q 416 758 433 747 l 413 758 q 406 745 413 745 l 400 745 q 391 758 396 745 q 372 730 372 747 z "},"D":{"ha":817,"x_min":-14,"x_max":801,"o":"m 198 1497 l 203 1497 q 211 1489 206 1497 l 211 852 q 218 838 218 844 l 218 832 q 211 818 218 826 l 211 809 q 526 758 478 769 l 580 740 q 712 648 637 721 q 772 552 751 600 q 801 416 801 459 l 801 401 q 629 -16 801 121 q 412 -81 537 -81 q 247 -60 351 -78 q -5 -16 23 -26 q -14 2 -14 -6 l -14 9 q 17 216 -14 18 q 109 804 104 779 q 138 820 121 820 l 189 812 l 191 812 l 191 814 q 174 836 177 814 q 187 854 178 854 q 158 923 187 892 q 146 916 155 916 l 135 916 q 120 935 120 924 l 120 939 q 140 959 120 954 l 144 959 q 165 935 161 959 q 189 905 176 935 l 191 905 l 191 1489 q 198 1497 191 1492 m 171 739 q 203 709 176 709 q 231 739 224 709 q 214 766 231 755 l 211 766 l 211 755 q 203 747 211 751 l 198 747 q 191 755 195 747 l 191 766 l 189 766 q 171 739 171 755 m 197 130 l 195 130 q 241 100 195 104 q 397 79 370 79 q 589 233 530 79 q 612 404 612 302 q 545 563 612 494 q 460 606 485 606 q 300 635 440 619 l 294 635 q 263 585 267 635 q 197 140 197 163 l 197 130 z "},"E":{"ha":722,"x_min":0,"x_max":713,"o":"m 189 1493 l 194 1493 q 201 1487 197 1493 l 201 872 q 208 859 208 865 l 208 853 q 201 840 208 847 l 201 824 l 203 824 q 705 743 675 753 q 713 722 713 734 q 677 602 705 602 l 674 602 q 306 657 667 602 l 294 657 q 267 626 271 657 q 251 516 251 530 l 251 513 q 294 481 251 486 q 617 430 579 441 q 629 406 629 422 q 593 298 623 298 l 588 298 l 254 349 q 216 298 216 349 q 199 179 199 204 l 199 176 q 261 146 205 146 q 602 93 277 143 q 621 71 621 83 l 621 66 q 593 -50 611 -50 q 583 -53 587 -53 q 12 37 46 26 q 0 60 0 48 l 117 815 q 142 833 127 833 q 182 827 153 833 l 182 836 q 167 857 169 836 q 179 873 170 873 q 151 939 179 910 q 139 932 149 932 l 129 932 q 115 951 115 940 l 115 955 q 134 973 115 968 l 138 973 q 158 951 153 973 q 180 922 168 951 l 182 922 l 182 1487 q 189 1493 182 1489 m 163 759 q 194 731 169 731 q 220 759 214 731 q 205 785 220 774 l 201 785 q 194 772 201 772 l 189 772 q 180 785 185 772 q 163 759 163 774 z "},"F":{"ha":593,"x_min":-34,"x_max":583,"o":"m 274 1508 l 279 1508 q 286 1501 282 1508 l 286 869 q 294 855 294 861 l 294 850 q 286 836 294 843 l 286 825 q 517 874 503 874 q 557 780 544 874 q 562 755 562 771 q 538 725 559 725 l 352 681 q 183 634 183 648 q 180 618 180 623 l 180 615 q 217 465 203 492 q 235 458 224 458 l 240 458 q 519 519 269 462 q 538 522 523 521 q 574 460 566 522 q 583 416 583 424 l 583 407 q 496 370 583 380 q 267 314 327 330 q 254 291 254 304 l 254 288 q 318 -4 254 281 l 318 -6 q 238 -45 318 -37 q 165 -61 201 -56 q 132 -2 138 -61 q -34 730 -34 717 l -34 732 q 48 770 -34 759 q 267 819 71 777 l 267 831 q 251 853 253 831 q 263 871 254 871 q 235 939 263 909 q 222 931 232 931 l 212 931 q 197 951 197 939 l 197 954 q 217 974 197 969 l 220 974 q 241 951 237 974 q 265 921 252 951 l 267 921 l 267 1501 q 274 1508 267 1503 m 247 751 q 279 724 252 724 q 306 751 300 724 q 290 779 306 768 l 286 779 q 279 766 286 766 l 274 766 q 265 779 270 766 q 247 751 247 768 z "},"G":{"ha":862,"x_min":0,"x_max":852,"o":"m 419 1495 l 425 1495 q 431 1489 427 1495 l 431 892 q 439 878 439 885 l 439 873 q 431 859 439 866 l 431 841 l 433 841 q 619 772 519 841 q 709 657 688 711 l 715 640 q 631 602 715 613 q 570 588 602 593 q 526 629 549 588 q 398 687 469 687 q 214 588 284 687 q 180 439 180 534 q 232 243 186 328 q 338 138 279 165 q 428 123 382 123 q 513 140 476 126 q 614 227 589 170 q 631 298 631 269 l 631 307 q 608 342 631 342 q 479 315 598 342 l 458 315 q 433 372 443 326 q 427 420 427 413 q 490 457 427 449 q 743 512 723 512 q 780 425 768 512 q 852 98 852 118 l 852 96 q 762 59 852 68 q 720 109 742 59 q 704 117 712 117 l 701 117 q 658 66 695 117 q 564 -1 608 15 q 430 -31 524 -23 l 395 -31 q 125 91 243 -31 q 43 222 64 160 q 14 307 26 258 q 0 409 3 354 l 0 437 q 203 789 0 669 q 338 836 254 818 q 412 842 384 841 l 412 855 q 396 876 399 855 q 409 894 399 894 q 380 961 409 931 q 368 954 378 954 l 357 954 q 343 973 343 962 l 343 977 q 363 996 343 991 l 366 996 q 387 973 382 996 q 410 943 397 973 l 412 943 l 412 1489 q 419 1495 412 1491 m 393 775 q 425 747 398 747 q 451 775 445 747 q 435 802 451 791 l 431 802 q 425 789 431 789 l 419 789 q 410 802 415 789 q 393 775 393 792 z "},"H":{"ha":783,"x_min":7,"x_max":772,"o":"m 138 1505 l 144 1505 q 151 1497 146 1505 l 151 817 q 158 803 158 810 l 158 797 q 151 783 158 791 l 151 766 q 233 741 233 766 q 235 735 235 741 q 220 467 228 543 q 257 430 220 430 q 543 416 491 416 q 573 477 573 416 q 589 728 582 728 q 621 741 598 741 l 656 741 l 669 739 l 669 748 q 653 770 656 748 q 666 788 656 788 q 637 857 666 826 q 622 850 629 850 l 616 850 q 597 870 603 850 q 618 894 600 894 l 621 894 q 646 868 635 894 q 668 839 662 858 l 669 839 l 669 1497 q 677 1505 669 1501 l 682 1505 q 690 1497 685 1505 l 690 786 q 697 772 697 779 l 697 766 q 690 751 697 760 l 690 737 l 709 737 q 772 711 772 737 q 726 -112 732 -112 q 697 -125 712 -124 q 547 -103 547 -122 q 543 -79 543 -95 l 543 -77 l 558 231 q 502 257 558 257 q 239 269 275 269 q 208 211 208 269 q 188 -83 197 -83 q 157 -96 188 -96 l 155 -96 q 14 -81 14 -92 q 7 -61 7 -71 l 7 -54 q 51 755 44 755 q 75 770 63 770 q 131 768 108 768 l 131 779 q 115 801 117 779 q 127 819 118 819 q 98 888 127 858 q 85 881 95 881 l 75 881 q 60 901 60 889 l 60 905 q 80 925 60 920 l 83 925 q 105 901 100 925 q 129 870 115 901 l 131 870 l 131 1497 q 138 1505 131 1501 m 111 696 q 144 667 117 667 q 171 696 165 667 q 155 724 171 713 l 151 724 q 144 711 151 711 l 138 711 q 129 724 134 711 q 111 696 111 714 m 650 667 q 682 637 650 641 q 709 669 709 642 q 690 693 705 693 q 679 680 690 680 q 668 695 668 684 q 650 667 650 685 z "},"I":{"ha":319,"x_min":81,"x_max":265,"o":"m 176 1501 l 182 1501 q 189 1494 184 1501 l 189 865 q 196 850 196 857 l 196 845 q 191 833 196 839 l 237 833 q 265 785 265 833 l 265 37 q 242 2 265 12 q 231 0 234 2 q 185 2 201 2 l 120 2 q 83 37 83 2 l 83 762 q 81 795 83 777 q 111 833 85 833 l 159 833 q 154 848 154 840 q 166 866 157 866 q 138 933 166 904 q 125 926 135 926 l 115 926 q 101 945 101 934 l 101 949 q 120 968 101 964 l 123 968 q 145 945 140 968 q 168 916 155 945 l 170 916 l 170 1494 q 176 1501 170 1497 m 150 748 q 182 720 155 720 q 208 748 202 720 q 193 774 208 764 l 189 774 q 182 762 189 762 l 176 762 q 168 774 173 762 q 150 748 150 764 z "},"J":{"ha":515,"x_min":-34,"x_max":500,"o":"m 234 1502 l 239 1502 q 245 1495 241 1502 l 245 832 q 252 819 252 825 l 252 808 q 295 819 284 819 q 345 713 318 819 q 493 251 488 280 q 500 181 500 203 q 411 14 500 80 q 298 -42 378 -13 q 218 -54 233 -54 l 195 -54 q 17 39 86 -54 q -34 169 -34 131 q 60 215 -34 191 q 98 224 66 220 q 130 169 117 224 q 218 96 165 96 l 225 96 q 317 145 283 96 q 324 184 324 167 q 252 430 324 218 q 149 755 149 748 q 218 796 149 781 l 220 800 q 212 817 212 804 q 223 833 215 833 q 196 899 223 870 q 184 892 193 892 l 174 892 q 160 910 160 899 l 160 913 q 179 932 160 928 l 182 932 q 203 910 198 932 q 225 882 212 910 l 227 882 l 227 1495 q 234 1502 227 1497 m 208 720 q 239 692 214 692 q 264 720 258 692 q 249 745 264 735 l 245 745 q 239 733 245 733 l 234 733 q 225 745 230 733 q 208 720 208 736 z "},"K":{"ha":854,"x_min":-27,"x_max":890,"o":"m 288 1501 l 293 1501 q 300 1495 296 1501 l 300 892 q 307 878 307 884 l 307 872 q 300 858 307 866 l 300 851 q 380 810 380 833 q 381 805 380 808 q 298 529 298 535 l 298 524 q 314 513 302 513 q 517 625 324 513 q 623 683 547 640 q 707 722 686 722 q 882 669 728 719 q 890 654 890 662 l 890 651 q 836 616 888 639 l 528 452 q 515 429 515 437 l 515 427 q 686 -111 515 417 l 687 -123 q 668 -136 687 -134 q 484 -74 484 -83 q 429 98 465 -40 q 358 330 404 175 q 337 344 351 344 q 226 285 321 344 q 169 124 216 285 q 128 37 145 37 l 123 37 q -16 80 101 37 q -27 96 -27 88 l -27 103 q 210 860 -6 180 q 235 870 218 870 q 267 863 237 870 l 264 876 q 277 893 268 893 q 249 960 277 931 q 236 954 245 954 l 226 954 q 212 973 212 961 l 212 977 q 231 996 212 991 l 235 996 q 256 973 251 996 q 279 943 266 973 l 281 943 l 281 1495 q 288 1501 281 1497 m 261 775 q 293 747 267 747 q 319 775 313 747 q 304 802 319 791 l 300 802 q 293 789 300 789 l 288 789 q 279 802 283 789 q 261 775 261 791 z "},"L":{"ha":619,"x_min":0,"x_max":614,"o":"m 231 1498 l 236 1498 q 243 1491 239 1498 l 243 886 q 251 871 251 878 l 251 866 q 243 851 251 859 l 243 849 q 329 821 329 838 l 331 811 q 220 206 220 214 q 214 161 214 180 q 307 127 214 138 q 587 75 327 122 q 614 50 614 64 q 589 -73 596 -64 q 567 -81 573 -81 q 16 22 62 12 q 0 52 0 31 q 149 848 133 774 q 174 862 155 858 l 209 857 l 209 859 l 208 869 q 220 888 211 888 q 191 957 220 926 q 178 949 188 949 l 168 949 q 153 969 153 957 l 153 973 q 173 993 153 988 l 176 993 q 198 969 193 993 q 222 939 208 969 l 224 939 l 224 1491 q 231 1498 224 1493 m 203 766 q 236 736 210 736 q 264 766 257 736 q 248 793 264 782 l 243 793 q 236 781 243 781 l 231 781 q 222 793 227 781 q 203 766 203 783 z "},"M":{"ha":955,"x_min":0,"x_max":939,"o":"m 102 1496 l 107 1496 q 114 1489 110 1496 l 114 958 q 121 944 121 951 l 121 939 q 114 924 121 932 q 125 922 115 924 q 294 907 294 920 q 338 769 304 897 l 456 368 q 469 357 461 363 q 503 418 485 357 q 679 884 663 846 q 702 896 696 896 l 825 890 l 823 899 l 823 901 q 836 919 827 919 q 808 987 836 957 q 795 979 804 979 l 784 979 q 770 999 770 987 l 770 1003 q 789 1023 770 1017 l 793 1023 q 814 999 810 1023 q 836 972 824 999 l 838 972 l 838 978 q 836 1491 838 1017 l 843 1496 l 848 1496 l 855 1491 q 857 1211 857 1225 q 859 916 857 1144 q 866 903 866 913 l 866 898 l 865 888 q 930 878 930 888 q 939 860 939 871 q 900 60 905 83 q 875 47 888 47 q 734 69 734 47 l 732 76 l 754 552 q 747 593 752 593 l 741 593 q 684 470 723 580 q 526 79 542 115 q 492 65 512 65 q 381 81 381 65 q 326 254 366 105 q 232 568 317 275 q 208 612 216 612 l 207 612 q 185 393 191 612 l 170 98 q 141 81 158 81 q 3 99 3 84 q 0 119 0 115 q 39 910 34 889 q 64 926 46 922 q 66 924 66 926 l 75 926 l 77 926 l 85 924 q 79 942 79 932 q 91 960 82 960 q 62 1027 91 998 q 50 1021 60 1021 l 39 1021 q 25 1040 25 1028 l 25 1044 q 45 1063 25 1059 l 48 1063 q 69 1040 64 1063 q 93 1010 79 1040 l 94 1010 l 94 1489 q 102 1496 94 1492 m 75 840 q 107 812 80 812 q 134 840 127 812 q 117 867 134 857 l 114 867 q 107 855 114 855 l 102 855 q 93 867 98 855 q 75 840 75 857 m 820 800 q 852 771 825 771 q 879 800 872 771 q 863 826 879 816 l 861 826 q 852 814 861 819 q 838 826 842 814 q 820 800 820 817 z "},"N":{"ha":793,"x_min":20,"x_max":772,"o":"m 103 1499 l 109 1499 q 116 1493 111 1499 l 116 823 q 123 808 123 815 l 123 803 q 116 789 123 797 l 116 787 q 179 791 171 791 q 255 713 208 791 q 550 305 271 694 q 571 290 566 290 q 582 304 582 293 l 582 315 q 551 782 582 331 l 551 787 q 601 819 551 819 q 621 821 616 821 l 621 823 q 604 844 604 833 l 604 847 q 617 865 604 857 q 589 932 617 902 q 580 925 589 930 l 571 925 q 551 945 551 928 l 551 948 q 571 967 551 962 l 574 967 q 595 945 591 967 q 617 918 605 945 l 618 918 l 618 922 l 619 1482 q 638 1477 638 1493 l 638 861 q 647 847 644 861 l 647 846 q 640 828 647 836 l 640 823 q 696 825 677 825 q 723 766 723 825 q 772 16 772 36 q 673 -10 772 -7 q 615 -14 644 -10 q 538 64 584 -14 l 237 479 q 220 486 230 486 q 211 468 214 479 q 241 -5 241 25 l 241 -9 q 229 -37 241 -30 q 98 -47 208 -42 q 68 35 68 -47 q 20 758 20 743 q 91 785 20 785 q 80 807 80 795 q 93 825 84 825 q 64 892 93 862 q 52 884 62 884 l 41 884 q 27 904 27 892 l 27 907 q 47 927 27 922 l 50 927 q 71 904 66 927 q 94 873 81 904 l 96 873 l 96 1493 q 103 1499 96 1495 m 601 747 q 631 718 601 725 q 661 747 661 723 q 642 772 658 772 q 635 761 638 761 l 627 761 q 618 773 625 761 q 601 747 601 764 m 77 706 q 109 678 82 678 q 135 706 129 678 q 119 732 135 722 l 116 732 q 109 720 116 720 l 103 720 q 94 732 100 720 q 77 706 77 723 z "},"O":{"ha":847,"x_min":0,"x_max":838,"o":"m 393 1496 l 398 1496 q 406 1489 401 1496 l 406 880 q 412 866 412 873 l 412 861 q 406 846 412 854 l 406 840 l 437 840 q 713 725 591 840 q 798 595 777 654 q 836 416 836 496 q 838 405 838 416 q 654 19 838 149 q 423 -47 543 -47 q 81 118 206 -47 q 3 332 26 195 q 2 358 3 335 q 3 369 2 359 q 0 395 0 382 q 3 416 0 406 q 2 427 3 417 q 36 590 2 482 q 99 699 56 637 q 239 804 175 780 q 349 837 265 821 q 385 840 380 840 l 385 842 q 369 864 372 842 q 382 882 373 882 q 353 950 382 920 q 340 943 350 943 l 330 943 q 315 963 315 951 l 315 966 q 335 986 315 981 l 338 986 q 360 963 355 986 q 384 932 370 963 l 385 932 l 385 1489 q 393 1496 385 1491 m 366 765 q 398 734 366 739 q 425 766 425 740 q 406 792 418 792 l 406 783 q 398 776 406 780 l 393 776 q 385 783 390 776 l 385 792 l 384 792 q 366 765 366 782 m 186 397 q 218 237 187 313 q 279 154 241 187 q 407 109 345 109 l 437 109 q 558 154 490 109 q 631 262 608 202 q 652 392 645 304 q 632 524 648 457 q 584 614 612 576 q 416 686 521 686 q 234 587 300 686 q 191 458 201 530 q 186 397 189 423 z "},"P":{"ha":694,"x_min":-34,"x_max":681,"o":"m 136 1497 l 142 1497 q 149 1491 144 1497 l 149 836 q 156 821 156 828 l 156 816 q 149 802 156 810 l 149 795 q 470 758 454 764 q 567 722 510 749 q 681 509 681 644 q 549 264 681 340 q 398 235 490 235 l 201 256 q 168 193 168 256 l 144 -16 q 110 -34 132 -34 q -27 -11 -27 -19 q -34 5 -34 -1 q 50 781 -32 44 q 80 802 58 802 q 124 799 96 802 q 114 820 114 808 q 126 837 117 837 q 98 904 126 874 q 85 897 95 897 l 75 897 q 61 916 61 905 l 61 920 q 80 939 61 935 l 84 939 q 105 916 100 939 q 127 886 115 916 l 130 886 l 130 1491 q 136 1497 130 1493 m 110 723 q 142 693 110 698 q 168 725 168 699 q 149 749 161 749 l 149 741 q 142 734 149 738 l 136 734 q 130 741 134 734 l 130 749 l 127 749 q 110 723 110 739 m 195 421 q 282 389 195 389 q 395 382 323 382 q 503 481 484 382 q 505 509 505 491 l 505 512 q 422 618 505 589 q 240 642 321 642 l 238 642 q 214 604 216 642 q 195 421 195 453 z "},"Q":{"ha":772,"x_min":-14,"x_max":758,"o":"m 379 1496 l 385 1496 q 391 1489 387 1496 l 391 853 q 397 840 397 846 l 397 835 q 391 821 397 829 l 391 817 q 578 764 484 810 q 736 570 694 692 q 758 448 758 504 l 758 437 q 602 75 758 216 q 599 65 599 70 l 599 60 q 648 -18 599 47 q 655 -35 655 -33 q 583 -94 655 -55 l 572 -95 q 518 -34 559 -93 q 470 11 490 11 q 393 -1 446 4 q 117 88 239 -1 q -14 394 -14 199 q 23 570 -14 463 q 67 653 43 615 q 373 817 182 817 l 373 818 q 358 838 360 818 q 370 854 361 854 q 343 917 370 890 q 332 911 340 911 l 321 911 q 309 929 309 918 l 309 932 q 327 950 309 945 l 330 950 q 350 929 345 950 q 371 901 359 929 l 373 901 l 373 1489 q 379 1496 373 1492 m 355 747 q 385 719 355 724 q 409 749 409 724 q 391 772 403 772 l 391 764 q 385 757 391 761 l 379 757 q 373 764 377 757 l 373 772 l 371 772 q 355 747 355 763 m 157 391 l 157 351 q 213 204 157 271 q 325 148 262 159 l 356 143 q 373 153 373 147 l 373 161 q 345 210 373 168 q 341 220 341 216 q 396 272 341 237 q 417 281 399 277 l 424 281 q 477 222 438 281 q 496 209 488 209 l 503 209 q 555 278 535 233 q 589 445 589 363 q 470 653 589 600 q 382 671 425 671 l 373 671 q 198 546 265 671 q 160 410 160 460 q 157 391 157 410 z "},"R":{"ha":728,"x_min":-20,"x_max":739,"o":"m 354 1498 l 359 1498 q 366 1491 362 1498 l 366 871 q 373 858 373 864 l 373 852 q 366 838 373 846 l 366 825 q 443 829 418 829 q 675 653 624 829 l 681 616 q 642 468 681 515 l 591 415 l 590 405 q 642 365 590 403 q 702 230 683 324 q 735 66 718 100 q 739 48 739 52 l 739 46 q 679 24 739 24 q 593 18 621 18 q 555 75 564 18 q 518 245 535 181 q 458 312 483 312 q 401 323 432 323 q 209 300 209 313 q 201 277 201 288 q 222 4 222 61 q 148 -20 222 -20 q 74 -27 148 -22 q 43 20 43 -27 q -20 768 -20 758 q 58 798 -20 798 q 347 823 70 800 l 347 835 q 331 856 334 835 q 343 873 334 873 q 315 940 343 911 q 303 933 313 933 l 293 933 q 279 952 279 941 l 279 956 q 298 975 279 970 l 301 975 q 322 952 317 975 q 345 922 332 952 l 347 922 l 347 1491 q 354 1498 347 1494 m 328 760 q 359 730 328 734 q 385 762 385 736 q 366 786 378 786 l 366 777 q 359 770 366 774 l 354 770 q 347 777 351 770 l 347 786 l 345 786 q 328 760 328 776 m 172 643 q 193 448 186 448 q 233 438 203 438 q 455 473 455 454 q 503 568 503 494 q 429 681 503 654 q 397 684 408 684 q 177 660 177 673 q 172 643 172 651 z "},"S":{"ha":722,"x_min":-20,"x_max":709,"o":"m 317 1511 l 322 1511 q 330 1503 325 1511 l 330 969 q 337 954 337 961 l 337 949 q 330 934 337 942 l 330 921 l 337 921 q 657 755 575 921 q 677 678 677 703 l 677 676 q 641 643 677 643 l 530 643 q 493 673 493 646 q 438 748 471 734 q 330 774 401 774 l 315 774 q 197 701 225 774 q 193 676 193 684 l 193 665 q 333 575 193 606 q 497 533 349 568 q 622 470 572 513 q 709 292 709 402 q 554 54 709 131 q 346 14 469 14 q 144 56 242 14 q 37 137 96 76 q -20 284 -11 201 l -20 295 q 16 321 -20 318 l 131 321 q 168 275 162 321 q 243 184 191 210 q 359 159 301 159 q 497 203 435 159 q 525 268 525 243 q 340 393 525 356 q 119 467 199 427 q 7 665 7 535 q 109 855 7 773 q 245 912 161 897 q 307 921 245 914 q 309 920 307 920 l 309 930 q 292 952 295 930 q 305 971 296 971 q 276 1041 305 1010 q 263 1034 273 1034 l 252 1034 q 237 1054 237 1042 l 237 1057 q 258 1078 237 1073 l 261 1078 q 283 1054 278 1078 q 307 1023 294 1054 l 309 1023 l 309 1503 q 317 1511 309 1506 m 289 851 q 322 820 289 825 q 350 853 350 826 q 330 879 342 879 l 330 869 q 322 862 330 867 l 317 862 q 309 869 314 862 l 309 879 l 307 879 q 289 851 289 869 z "},"T":{"ha":695,"x_min":7,"x_max":689,"o":"m 336 1500 l 341 1500 q 348 1493 344 1500 l 348 857 q 355 842 355 849 l 355 837 q 348 823 355 831 l 348 812 l 652 812 q 687 781 687 812 q 689 745 689 768 l 689 694 q 654 660 689 660 l 516 660 q 445 648 445 660 q 438 588 438 648 l 438 27 q 422 -17 438 -17 q 401 -20 422 -20 l 295 -20 q 256 12 256 -20 l 256 595 q 254 628 256 609 l 256 632 q 222 659 250 659 q 171 660 203 660 l 100 660 q 37 659 76 660 q 7 688 7 662 l 7 775 q 35 812 7 812 l 328 812 l 328 819 q 313 840 315 819 q 325 858 316 858 q 296 925 325 896 q 284 918 294 918 l 274 918 q 260 938 260 926 l 260 941 q 279 960 260 956 l 283 960 q 304 938 299 960 q 327 907 313 938 l 328 907 l 328 1493 q 336 1500 328 1495 m 309 743 q 341 713 309 718 q 368 745 368 719 q 348 770 361 770 l 348 761 q 341 754 348 758 l 336 754 q 328 761 333 754 l 328 770 l 327 770 q 309 743 309 760 z "},"U":{"ha":760,"x_min":0,"x_max":751,"o":"m 130 1501 l 134 1501 q 142 1494 137 1501 l 142 861 q 149 847 149 854 l 149 842 q 142 828 149 836 q 229 802 229 823 q 231 791 231 792 l 182 288 l 182 272 q 262 131 182 164 q 349 111 311 111 l 360 111 q 488 162 457 111 q 517 235 504 179 q 573 763 530 332 q 601 781 581 781 q 646 777 642 777 q 640 793 640 787 l 640 796 q 655 817 640 805 l 655 1494 q 663 1501 655 1497 l 667 1501 q 675 1494 670 1501 l 675 878 q 697 908 691 891 q 715 915 705 915 q 734 896 734 912 l 734 892 q 720 873 734 881 l 711 873 q 696 880 705 873 q 675 837 675 853 l 675 812 q 682 796 682 803 l 682 787 l 675 777 l 675 774 q 751 739 751 774 q 690 180 704 259 q 605 36 648 68 q 378 -41 525 -41 q 28 134 97 -30 q 0 262 0 205 l 0 271 q 54 817 0 307 q 81 833 65 833 q 110 831 104 831 q 106 845 106 838 q 119 863 110 863 q 91 929 119 900 q 79 922 88 922 l 68 922 q 54 941 54 930 l 54 945 q 73 964 54 960 l 77 964 q 98 941 93 964 q 121 911 108 941 l 122 911 l 122 1494 q 130 1501 122 1497 m 103 749 q 134 720 103 724 q 161 751 161 725 q 142 775 154 775 l 142 766 q 134 760 142 764 l 130 760 q 122 766 127 760 l 122 775 l 121 775 q 103 749 103 766 m 636 699 q 667 671 642 671 q 694 699 688 671 q 678 725 694 714 l 675 725 q 667 711 675 711 l 663 711 q 654 725 658 711 q 636 699 636 715 z "},"V":{"ha":750,"x_min":0,"x_max":740,"o":"m 641 1506 l 646 1506 q 654 1498 649 1506 l 654 978 q 659 966 659 971 l 659 960 q 654 947 659 954 l 654 939 q 716 944 663 939 q 740 922 740 939 q 551 94 566 135 q 464 72 538 72 q 361 61 380 61 q 317 120 335 61 q 0 846 145 509 l 0 856 q 58 880 0 877 q 92 881 63 880 l 92 886 q 75 908 75 897 l 75 911 q 87 930 75 922 q 59 998 87 966 l 58 998 q 45 991 54 991 l 39 991 q 20 1010 26 991 q 41 1034 23 1034 q 64 1010 64 1031 q 90 980 75 1010 l 92 980 l 92 1497 q 98 1503 92 1499 l 104 1503 q 111 1497 106 1503 l 111 928 q 118 911 118 918 l 118 910 q 111 892 118 899 l 111 885 l 113 885 q 154 888 126 885 q 201 831 183 888 q 405 360 206 823 q 421 349 415 349 q 456 471 437 349 q 548 892 480 568 q 587 931 557 931 q 634 935 623 935 l 634 939 q 616 964 616 948 q 629 981 620 981 q 600 1050 629 1019 q 587 1042 597 1042 l 576 1042 q 562 1062 562 1050 l 562 1065 q 582 1085 562 1080 l 586 1085 q 607 1062 602 1085 q 632 1028 632 1042 l 634 1028 l 634 1498 q 641 1506 634 1501 m 612 865 q 643 835 618 835 q 673 867 669 835 q 654 892 667 892 l 654 883 q 646 876 654 880 l 641 876 q 634 894 634 876 q 612 865 612 884 m 72 811 q 104 783 77 783 q 131 811 125 783 q 115 838 131 827 l 111 838 q 104 824 111 824 l 98 824 q 90 838 94 824 q 72 811 72 828 z "},"W":{"ha":1121,"x_min":-14,"x_max":1112,"o":"m 1004 1503 l 1010 1503 q 1017 1495 1013 1503 l 1017 865 q 1025 849 1025 856 l 1025 847 q 1017 829 1025 836 l 1017 823 l 1075 823 q 1112 803 1112 823 l 1112 795 q 1021 450 1106 764 q 940 144 970 262 q 903 12 931 121 q 876 -42 888 -42 q 829 -47 876 -47 l 791 -47 q 699 -35 699 -47 q 647 161 680 12 q 602 336 627 235 q 558 500 576 445 q 547 504 557 500 q 499 344 531 504 q 425 48 490 315 q 387 -44 408 -44 q 353 -47 377 -47 l 252 -47 q 199 -3 199 -47 q 22 665 169 98 q -14 799 -14 783 l -14 801 q 33 823 -14 823 l 69 823 q 60 844 60 832 q 73 862 64 862 q 43 932 73 900 q 29 924 36 924 l 23 924 q 3 945 9 924 q 25 969 7 969 l 27 969 q 53 943 43 969 q 75 913 69 932 l 77 913 l 77 1491 q 84 1499 77 1495 l 90 1499 q 97 1491 93 1499 l 97 860 q 104 845 104 852 l 104 840 q 97 825 104 833 l 97 823 l 136 823 q 173 803 161 823 q 224 591 212 637 q 260 436 224 583 q 302 277 288 307 l 309 272 q 348 382 325 272 q 396 570 357 410 q 451 785 407 602 q 490 823 463 823 l 601 823 q 648 781 648 823 l 774 286 q 791 266 779 266 l 792 266 q 835 410 806 266 q 892 646 846 448 q 938 814 929 814 q 986 823 952 823 l 997 823 q 981 845 981 833 l 981 849 q 994 867 981 859 q 964 937 994 905 l 962 937 q 949 930 959 930 l 944 930 q 924 950 930 930 q 945 975 927 975 q 970 950 970 972 q 996 919 981 950 l 997 919 l 997 1495 q 1004 1503 997 1498 m 977 745 q 1010 716 983 716 q 1038 745 1031 716 q 1021 773 1038 762 l 1017 773 q 1010 758 1017 758 l 1004 758 q 996 773 1000 758 q 977 745 977 763 m 56 742 q 90 711 56 715 q 117 744 117 716 q 97 768 113 768 q 90 755 97 755 l 84 755 q 75 770 79 755 q 56 742 56 760 z "},"X":{"ha":912,"x_min":-34,"x_max":930,"o":"m 462 1506 l 467 1506 q 473 1499 469 1506 l 473 774 q 480 762 480 767 l 480 756 q 473 743 480 750 l 473 741 q 543 774 530 772 l 550 774 q 559 763 559 768 l 519 355 q 613 292 519 332 l 926 117 q 930 109 926 115 q 841 53 930 93 q 770 18 789 21 q 659 76 749 20 q 508 159 513 159 l 501 159 q 482 68 486 159 q 464 -132 470 -43 q 374 -194 464 -153 q 311 -224 324 -224 q 296 -204 296 -219 l 340 229 q 288 280 340 258 q -22 448 286 283 q -34 463 -32 456 q 33 507 -34 479 q 115 549 104 549 l 128 549 q 331 433 146 542 q 359 421 349 421 l 366 421 q 387 569 381 421 q 408 703 397 703 l 455 733 l 455 740 q 441 760 443 740 q 452 776 444 776 q 425 839 452 810 q 412 832 418 832 l 408 832 q 389 850 395 832 q 409 872 392 872 l 410 872 q 433 849 425 872 q 454 822 448 840 l 455 822 l 455 1499 q 462 1506 455 1502 m 437 668 q 467 640 437 644 q 492 670 492 646 q 473 693 486 693 l 473 685 q 467 678 473 682 l 462 678 q 455 685 459 678 l 455 693 l 454 693 q 437 668 437 684 z "},"Y":{"ha":720,"x_min":0,"x_max":741,"o":"m 96 1506 l 101 1506 q 108 1499 104 1506 l 108 862 q 115 848 115 854 l 115 842 q 108 828 115 836 l 108 814 q 197 757 197 800 l 280 447 l 291 439 l 301 439 q 463 589 308 440 q 564 677 552 677 l 578 681 q 737 631 715 645 l 741 626 l 741 621 q 615 494 741 605 q 328 225 491 376 q 262 13 309 191 q 227 -78 239 -78 q 216 -81 221 -81 l 214 -81 q 73 -41 193 -81 q 64 -23 64 -30 q 142 262 64 -15 l 142 277 q 64 576 137 314 q 0 823 20 737 q 20 839 0 837 q 89 821 39 835 l 89 825 q 73 846 75 825 q 85 863 76 863 q 57 930 85 900 q 43 924 50 924 l 37 924 q 18 943 24 924 q 39 966 21 966 l 41 966 q 66 941 56 966 q 87 913 81 931 l 89 913 l 89 1499 q 96 1506 89 1502 m 69 748 q 101 718 69 723 q 127 750 127 724 q 108 774 121 774 l 108 766 q 101 759 108 763 l 96 759 q 89 766 93 759 l 89 774 l 87 774 q 69 748 69 765 z "},"Z":{"ha":748,"x_min":0,"x_max":736,"o":"m 478 1493 l 484 1493 q 490 1485 486 1493 l 490 859 q 498 844 498 852 l 498 839 q 490 825 498 833 l 490 815 q 646 825 629 825 q 675 791 671 825 q 680 730 677 751 q 678 724 680 728 q 680 708 680 714 l 680 706 q 653 640 680 669 l 281 130 l 279 119 l 279 110 q 308 100 279 103 l 701 126 q 733 71 733 126 q 736 -5 736 40 q 667 -35 736 -35 q 40 -75 64 -75 q 13 -33 13 -66 l 13 -31 q 9 55 13 -16 q 62 144 9 82 q 232 378 94 190 q 407 621 399 606 q 412 633 412 629 q 387 650 412 650 l 40 627 l 33 627 q 2 709 2 627 q 0 761 0 751 q 77 788 0 788 q 471 814 399 810 l 471 821 q 454 843 456 821 q 467 861 458 861 q 437 930 467 899 q 423 923 430 923 l 418 923 q 397 943 404 923 q 420 967 401 967 l 421 967 q 447 941 437 967 q 469 912 463 931 l 471 912 l 471 1485 q 478 1493 471 1488 m 450 743 q 484 711 450 716 q 511 744 511 718 q 490 770 504 770 l 490 761 q 484 753 490 758 l 478 753 q 471 761 475 753 l 471 770 l 469 770 q 450 743 450 760 z "},"[":{"ha":514,"x_min":0,"x_max":0,"o":""},"\\":{"ha":386,"x_min":0,"x_max":0,"o":""},"]":{"ha":514,"x_min":0,"x_max":0,"o":""},"^":{"ha":688,"x_min":0,"x_max":0,"o":""},"_":{"ha":694,"x_min":0,"x_max":694,"o":"m 0 -68 l 694 -68 l 694 -109 l 0 -109 l 0 -68 z "},"`":{"ha":694,"x_min":144,"x_max":456,"o":"m 456 732 l 410 732 l 186 869 q 154 896 165 882 q 144 924 144 909 q 158 959 144 945 q 194 972 172 972 q 221 964 208 972 q 259 932 235 956 l 456 732 z "},"a":{"ha":625,"x_min":0,"x_max":625,"o":"m 419 1503 l 424 1503 q 431 1496 427 1503 l 431 677 q 438 663 438 670 l 438 658 q 431 644 438 652 l 431 642 q 517 570 484 627 q 597 195 536 510 q 625 107 625 113 q 535 76 625 87 q 493 68 518 68 q 452 95 479 68 l 440 95 q 202 0 340 0 l 192 0 q 79 47 134 0 q 28 176 28 112 q 215 364 28 311 q 336 410 283 387 q 373 459 373 436 q 326 535 373 515 q 302 538 310 538 l 287 538 q 189 505 232 538 q 157 433 167 488 q 21 397 157 418 q 0 422 3 397 q 136 610 0 549 q 349 656 243 656 q 397 653 360 656 l 396 656 l 396 662 q 408 680 399 680 q 380 746 408 715 q 366 739 373 739 l 361 739 q 341 758 347 739 q 363 781 345 781 l 364 781 q 389 757 379 781 q 410 728 404 747 l 412 728 l 412 1496 q 419 1503 412 1499 m 393 565 q 424 535 393 539 q 450 566 450 541 q 431 591 444 591 l 431 583 q 424 575 431 580 l 419 575 q 412 583 416 575 l 412 591 l 410 591 q 393 565 393 581 m 192 208 l 192 197 q 255 123 200 123 q 271 121 255 121 l 289 121 q 393 169 341 121 q 415 239 415 208 q 397 326 415 296 q 385 329 391 329 q 227 264 271 289 q 192 208 192 231 z "},"b":{"ha":681,"x_min":0,"x_max":675,"o":"m 309 1503 l 313 1503 q 320 1495 316 1503 l 320 852 q 328 838 328 844 l 328 833 q 322 821 328 827 l 322 819 q 398 776 398 801 l 398 774 q 347 618 398 768 q 326 540 326 559 l 326 538 q 339 530 329 530 q 435 547 401 547 l 448 547 q 561 514 495 547 q 663 377 633 469 q 675 304 672 343 q 585 35 675 163 q 400 -68 496 -68 q 199 19 286 -68 q 163 62 173 60 q 135 31 157 62 l 126 29 l 119 29 q 2 76 2 60 l 0 85 q 241 810 0 96 q 269 836 253 836 q 286 834 273 834 q 298 853 288 853 q 270 920 298 889 q 256 912 263 912 l 251 912 q 232 931 238 912 q 253 954 235 954 l 254 954 q 279 930 269 954 q 300 902 294 920 l 301 902 l 301 1495 q 309 1503 301 1498 m 282 741 q 313 711 282 716 q 339 743 339 717 q 320 767 333 767 l 320 758 q 313 751 320 755 l 309 751 q 301 758 306 751 l 301 767 l 300 767 q 282 741 282 757 m 220 229 l 220 211 q 291 83 220 117 q 351 69 291 76 q 487 182 426 69 q 514 292 506 227 l 514 294 q 467 414 514 366 q 400 441 431 437 l 381 441 q 234 302 292 441 q 220 229 220 251 z "},"c":{"ha":614,"x_min":0,"x_max":609,"o":"m 337 1503 l 342 1503 q 350 1496 345 1503 l 350 797 q 374 829 363 807 q 387 834 381 834 l 391 834 q 410 814 410 831 l 410 806 q 393 791 403 791 l 387 791 q 371 798 380 791 q 350 754 350 771 l 350 729 q 357 715 357 722 l 357 710 q 350 696 357 703 l 350 690 q 476 646 401 690 q 552 548 536 600 l 552 541 q 467 504 552 519 q 422 493 436 493 q 387 519 402 493 q 304 561 350 561 q 174 479 211 561 q 161 418 161 446 q 262 189 161 264 q 314 176 296 176 q 451 273 421 176 q 474 337 454 337 q 588 366 564 366 l 591 366 q 609 337 609 355 q 435 76 609 148 q 291 47 368 47 q 104 122 191 47 q 35 220 50 178 q 0 408 0 285 l 0 415 q 52 561 0 475 q 220 674 110 641 q 330 690 274 690 l 330 692 q 314 710 318 692 l 314 713 q 330 733 318 733 l 330 1496 q 337 1503 330 1499 m 311 616 q 342 585 311 590 q 370 617 370 591 q 350 642 363 642 l 350 633 q 342 626 350 631 l 337 626 q 330 633 334 626 l 330 642 l 328 642 q 311 616 311 632 z "},"d":{"ha":663,"x_min":0,"x_max":667,"o":"m 400 1506 l 406 1506 q 412 1498 408 1506 l 412 939 q 437 970 425 949 q 449 976 444 976 l 452 976 q 472 957 472 973 l 472 948 q 454 935 465 935 l 449 935 q 433 941 443 935 q 412 898 412 914 l 412 873 q 420 859 420 866 l 420 854 l 418 846 l 449 850 q 489 762 473 850 q 667 87 667 100 l 667 78 q 543 31 667 54 q 512 62 526 31 q 501 67 504 67 q 470 33 489 63 q 350 -37 430 -15 q 296 -47 330 -42 q 10 210 84 -47 q 0 311 0 255 l 0 313 q 123 541 0 460 q 237 574 192 573 q 351 549 304 574 l 362 548 q 372 557 366 548 q 315 791 372 575 l 315 797 q 339 825 315 817 q 388 837 345 825 q 378 854 378 847 l 378 858 q 393 877 382 877 l 393 1498 q 400 1506 393 1501 m 374 762 q 406 732 374 736 q 432 764 432 738 q 412 788 425 788 l 412 779 q 406 772 412 777 l 400 772 q 393 779 397 772 l 393 788 l 391 788 q 374 762 374 779 m 162 321 q 259 106 162 176 q 326 87 298 87 q 452 180 417 87 q 460 224 460 220 q 411 400 460 306 q 310 463 361 463 l 299 463 q 172 385 210 463 q 162 321 162 348 z "},"e":{"ha":636,"x_min":0,"x_max":629,"o":"m 328 1503 l 333 1503 q 340 1496 336 1503 l 340 776 q 366 808 354 786 q 378 814 372 814 l 382 814 q 402 794 402 811 l 402 785 q 385 770 395 770 l 378 770 q 362 778 372 770 q 340 732 340 749 l 340 706 q 348 692 348 699 l 348 686 q 340 671 348 680 l 340 659 q 483 609 402 659 q 584 487 555 548 q 618 390 601 464 l 618 386 q 516 340 618 359 q 209 256 240 267 q 199 234 199 246 l 199 229 q 263 146 220 172 q 311 132 292 132 l 323 132 q 481 221 431 132 q 534 263 497 263 q 606 281 574 276 q 629 258 629 281 q 582 126 629 203 q 422 20 526 50 q 300 0 367 0 q 192 24 230 7 q 44 168 91 71 q 2 348 2 248 l 2 353 q 0 360 2 357 q 57 525 8 452 q 229 646 117 612 q 320 661 280 661 l 320 668 q 304 686 308 668 l 304 690 q 320 710 308 710 l 320 1496 q 328 1503 320 1499 m 300 589 q 333 558 300 563 q 360 591 360 564 q 340 616 353 616 l 340 608 q 333 600 340 604 l 328 600 q 320 608 325 600 l 320 616 l 318 616 q 300 589 300 606 m 159 395 q 176 366 159 376 l 184 366 q 410 425 208 366 q 419 441 419 434 l 419 446 q 362 514 419 474 q 307 529 335 529 q 172 452 219 529 q 159 395 159 418 z "},"f":{"ha":430,"x_min":0,"x_max":418,"o":"m 189 1507 l 195 1507 q 201 1500 197 1507 l 201 815 q 227 848 215 825 q 240 853 234 853 l 243 853 q 263 833 263 850 l 263 824 q 245 810 256 810 l 240 810 q 223 817 233 810 q 201 772 201 789 l 201 746 q 209 732 209 739 l 209 726 q 201 711 209 720 l 201 705 q 309 728 252 728 l 316 726 q 321 728 318 726 q 416 699 416 724 q 418 688 416 698 q 401 601 415 601 q 391 595 401 597 q 342 597 346 597 q 283 547 283 591 q 279 528 280 547 l 279 523 q 330 490 279 490 q 391 461 391 490 q 393 437 393 446 q 387 408 391 416 l 389 405 q 359 376 383 376 q 292 378 307 378 q 265 339 265 370 q 229 -115 240 -115 q 201 -122 215 -122 q 78 -108 78 -117 q 67 -84 67 -99 q 96 363 96 334 q 62 395 96 392 l 40 395 q 0 425 5 395 l 0 429 q 24 507 0 507 q 37 510 24 509 l 40 510 q 82 508 57 510 q 111 557 111 508 q 156 671 111 604 l 182 694 l 182 708 q 165 726 170 708 l 165 730 q 182 750 170 750 l 182 1500 q 189 1507 182 1503 m 161 630 q 195 599 161 604 q 222 631 222 605 q 201 657 215 657 l 201 648 q 195 641 201 645 l 189 641 q 182 648 186 641 l 182 657 l 180 657 q 161 630 161 647 z "},"g":{"ha":765,"x_min":-27,"x_max":781,"o":"m 303 1506 l 309 1506 q 317 1498 312 1506 l 317 780 q 343 814 331 791 q 357 821 351 821 l 361 821 q 382 800 382 817 l 382 790 q 362 774 374 774 l 357 774 q 340 782 350 774 q 317 734 317 753 l 317 707 q 324 692 324 700 l 324 686 q 317 671 324 680 l 317 665 q 357 669 327 669 l 378 669 q 494 637 417 669 q 588 536 551 606 q 600 530 595 530 q 628 561 610 530 q 643 568 636 568 l 649 568 q 781 515 781 534 l 781 507 q 626 32 781 486 q 553 -148 591 -94 q 349 -251 475 -251 l 343 -251 q 97 -180 222 -251 q -27 18 -27 -93 q -2 54 -27 50 l 3 54 q 130 14 24 54 q 160 -52 144 5 q 265 -123 186 -98 q 305 -127 272 -123 q 410 -64 363 -127 q 444 41 444 -1 l 437 47 l 427 47 q 332 24 366 24 q 95 146 186 24 q 55 292 55 217 q 106 500 55 394 q 254 646 163 605 q 296 662 266 654 l 296 667 q 278 686 283 667 l 278 690 q 296 711 283 711 l 296 1498 q 303 1506 296 1501 m 275 585 q 309 553 275 558 q 338 587 338 559 q 317 614 330 614 l 317 604 q 309 597 317 602 l 303 597 q 296 604 300 597 l 296 614 l 294 614 q 275 585 275 604 m 235 293 l 235 290 q 345 148 235 174 q 374 144 369 144 q 542 318 496 144 q 546 362 546 351 l 546 376 q 439 517 546 483 q 406 521 413 521 l 391 521 q 269 429 326 521 q 235 293 235 357 z "},"h":{"ha":680,"x_min":0,"x_max":708,"o":"m 321 1501 l 327 1501 q 334 1493 330 1501 l 334 998 q 361 1031 348 1008 q 374 1037 368 1037 l 377 1037 q 398 1017 398 1034 l 398 1007 q 379 992 390 992 l 374 992 q 357 1000 367 992 q 334 953 334 971 l 334 927 q 342 912 342 919 l 342 907 q 334 892 342 900 l 334 878 q 422 839 422 853 q 424 831 424 836 l 424 824 q 346 578 424 815 l 346 568 q 359 553 346 553 q 411 572 363 553 q 476 583 437 580 q 657 507 567 583 q 708 374 708 457 q 637 118 708 311 q 566 -100 575 -75 q 543 -115 553 -113 q 406 -61 406 -77 q 401 -46 401 -52 q 517 321 505 265 q 523 359 523 335 l 523 365 q 443 460 523 433 q 411 466 418 466 l 396 466 q 280 370 317 466 q 168 41 262 333 q 144 19 157 19 l 131 19 q 0 75 0 56 l 0 81 q 201 699 26 170 l 262 880 q 286 892 273 892 q 308 888 295 892 q 297 907 297 899 l 297 910 q 314 930 301 930 l 314 1493 q 321 1501 314 1496 m 310 888 l 310 886 l 314 886 l 314 888 l 310 888 m 293 808 q 327 776 293 781 q 355 809 355 781 q 334 836 348 836 l 334 826 q 327 819 334 823 l 321 819 q 314 826 318 819 l 314 836 l 312 836 q 293 808 293 825 z "},"i":{"ha":225,"x_min":7,"x_max":182,"o":"m 86 1499 l 92 1499 q 99 1492 94 1499 l 99 1008 q 125 1042 113 1019 q 138 1048 132 1048 l 142 1048 q 163 1027 163 1045 l 163 1018 q 144 1003 155 1003 l 138 1003 q 121 1010 132 1003 q 99 963 99 981 l 99 937 q 106 922 106 929 l 106 916 q 99 901 106 909 l 99 886 l 144 886 q 182 845 182 886 l 182 773 q 144 743 182 743 l 101 743 l 101 664 q 106 651 106 657 l 106 642 l 148 642 q 182 604 182 642 l 182 41 q 148 0 182 0 l 48 0 q 7 37 7 0 l 7 610 q 46 642 7 642 l 61 642 l 61 649 q 75 670 61 660 q 58 694 75 694 q 33 715 33 694 l 33 719 q 54 739 33 734 l 58 739 q 78 719 78 736 l 78 715 l 77 705 l 80 704 l 80 743 l 44 743 q 7 781 7 743 l 7 848 q 31 886 7 880 l 78 886 l 78 897 q 61 916 66 897 l 61 920 q 78 941 66 941 l 78 1492 q 86 1499 78 1495 m 58 817 q 80 787 65 787 l 80 800 q 87 807 80 802 l 94 807 q 101 800 96 807 l 101 788 l 102 788 q 119 819 119 798 q 99 845 113 845 l 99 836 q 92 828 99 832 l 86 828 q 78 836 83 828 l 78 845 l 77 845 q 58 817 58 834 m 60 578 q 94 547 65 547 q 121 578 115 547 q 104 606 121 595 l 101 606 q 95 596 101 596 l 87 596 q 78 606 86 596 q 60 578 60 595 z "},"j":{"ha":301,"x_min":0,"x_max":273,"o":"m 129 1526 l 134 1526 q 142 1518 138 1526 l 142 964 q 168 997 156 974 q 181 1002 175 1002 l 185 1002 q 205 982 205 1000 l 205 972 q 186 958 198 958 l 181 958 q 164 965 174 958 q 142 919 142 937 l 142 892 q 149 878 149 884 l 149 872 q 142 857 149 865 l 142 842 l 185 846 q 217 762 217 846 q 218 749 217 756 q 185 702 218 702 q 146 700 164 700 l 144 696 l 144 622 q 149 608 149 615 l 149 601 l 151 601 l 178 603 l 191 601 l 194 603 q 233 530 233 603 q 273 -115 273 -68 q 151 -256 273 -216 q 49 -271 131 -262 q 4 -224 4 -271 q 0 -167 0 -191 l 0 -161 q 37 -127 0 -127 q 94 -88 71 -127 l 97 -70 l 95 -60 q 97 -41 95 -58 q 56 569 56 539 q 101 597 56 593 l 106 597 l 104 601 l 104 607 q 118 627 104 618 q 101 652 118 652 q 77 672 77 652 l 77 675 q 92 694 77 688 l 92 696 l 86 696 l 73 694 q 43 736 47 694 l 39 810 q 102 840 39 840 l 121 840 l 121 853 q 104 872 109 853 l 104 876 q 121 896 109 896 l 121 1518 q 129 1526 121 1522 m 101 773 q 123 743 109 743 l 123 756 q 131 764 123 759 l 136 764 q 144 756 139 764 l 144 745 l 146 745 q 163 774 163 754 q 142 801 155 801 l 142 791 q 134 784 142 789 l 129 784 q 121 791 126 784 l 121 801 l 119 801 q 101 773 101 791 m 106 696 l 106 694 q 121 675 118 694 l 121 672 l 119 663 l 123 661 l 123 699 q 106 696 113 696 m 102 536 q 136 506 109 506 q 164 536 158 506 q 148 564 164 553 l 144 564 q 138 554 144 554 l 131 554 q 121 564 129 554 q 102 536 102 553 z "},"k":{"ha":606,"x_min":-14,"x_max":624,"o":"m 223 1503 l 229 1503 q 235 1497 231 1503 l 235 916 q 259 946 248 925 q 271 951 265 951 l 275 951 q 293 932 293 949 l 293 924 q 276 910 286 910 l 271 910 q 256 917 264 910 q 235 875 235 891 l 235 850 q 242 837 242 844 l 242 832 q 235 819 242 826 l 235 815 q 315 779 315 802 l 315 772 q 254 508 315 763 q 232 410 232 428 q 240 396 232 401 l 245 396 q 359 464 261 396 q 450 520 415 497 q 479 527 467 527 q 624 484 624 499 q 555 431 624 466 q 402 338 416 350 q 395 324 395 330 l 395 312 q 525 -49 399 298 q 527 -56 525 -53 q 516 -75 522 -75 l 499 -75 q 353 -31 353 -43 q 303 106 345 -31 q 258 235 271 205 q 247 239 252 239 l 243 239 q 179 197 199 227 q 138 35 145 54 q 111 21 138 23 q -3 48 92 21 q -14 68 -14 58 q 160 803 -14 77 q 184 825 170 825 l 191 825 l 203 823 l 201 832 l 201 836 q 216 854 205 854 l 216 1497 q 223 1503 216 1499 m 198 742 q 229 713 198 717 q 254 743 254 718 q 235 767 248 767 l 235 759 q 229 752 235 756 l 223 752 q 216 759 220 752 l 216 767 l 215 767 q 198 742 198 758 z "},"l":{"ha":210,"x_min":7,"x_max":186,"o":"m 84 1499 l 90 1499 q 97 1492 92 1499 l 97 1001 q 123 1034 111 1011 q 136 1040 130 1040 l 139 1040 q 159 1019 159 1036 l 159 1010 q 141 995 152 995 l 136 995 q 119 1002 129 995 q 97 956 97 975 l 97 930 q 104 916 104 923 l 104 911 q 97 896 104 904 l 97 878 l 99 878 q 174 861 174 878 q 178 835 178 847 l 180 48 q 145 -66 186 -82 l 145 -68 l 123 -66 l 60 -66 q 7 -37 7 -66 l 7 844 q 56 878 7 878 l 77 878 l 77 892 q 60 911 64 892 l 60 914 q 77 935 64 935 l 77 1492 q 84 1499 77 1495 m 56 813 q 90 782 56 787 q 117 814 117 787 q 97 840 110 840 l 97 831 q 90 824 97 829 l 84 824 q 77 831 81 824 l 77 840 l 75 840 q 56 813 56 830 z "},"m":{"ha":926,"x_min":0,"x_max":923,"o":"m 759 1503 l 764 1503 q 771 1496 767 1503 l 771 739 l 772 739 q 789 758 772 743 q 808 776 791 776 l 810 776 q 830 754 827 776 q 812 735 825 735 l 806 735 q 793 742 800 735 q 771 700 772 719 l 771 676 q 778 661 778 667 l 778 652 l 771 642 l 771 637 l 800 622 q 898 398 898 574 q 923 102 899 393 q 882 66 923 66 q 796 61 827 61 l 791 61 q 764 119 764 61 q 725 464 738 464 q 690 507 715 491 q 629 517 675 517 q 571 493 604 514 q 538 415 538 455 l 538 378 q 562 62 538 336 q 517 35 562 39 q 430 31 455 31 q 404 83 404 31 q 368 433 379 388 q 290 486 342 486 l 275 486 q 205 452 241 486 q 176 373 176 421 l 176 356 q 200 32 176 333 q 120 3 200 3 q 68 0 92 0 q 42 47 42 0 q 0 547 39 71 q 61 579 0 579 l 61 581 q 45 598 50 581 l 45 602 q 61 620 50 620 l 61 1491 q 68 1498 61 1494 l 73 1498 q 79 1491 75 1498 l 79 681 q 103 711 92 690 q 115 717 110 717 l 119 717 q 137 698 137 714 l 137 690 q 120 676 130 676 l 115 676 q 100 683 109 676 q 79 640 79 656 l 79 616 q 86 603 86 610 l 86 598 q 79 585 86 592 l 79 581 q 117 583 105 583 q 147 557 147 583 q 159 535 155 536 l 163 535 q 197 561 176 535 q 344 616 261 616 l 351 616 q 488 555 435 616 q 500 551 498 551 q 551 595 511 551 q 683 646 613 646 l 684 646 q 745 640 729 646 l 747 640 l 747 642 q 737 657 739 642 l 737 661 q 752 681 737 669 l 752 1496 q 759 1503 752 1499 m 734 566 q 764 538 739 538 q 789 566 783 538 q 774 591 789 581 l 771 591 q 764 578 771 578 l 759 578 q 751 591 755 578 q 734 566 734 582 m 42 508 q 73 479 42 484 q 98 510 98 485 q 79 534 92 534 l 79 525 q 73 518 79 522 l 68 518 q 61 525 65 518 l 61 534 l 59 534 q 42 508 42 524 z "},"n":{"ha":624,"x_min":0,"x_max":601,"o":"m 354 1500 l 359 1500 q 366 1493 362 1500 l 366 770 l 368 770 q 391 799 368 780 q 412 820 395 820 l 414 820 q 435 798 431 820 q 415 778 429 778 l 410 778 q 396 785 404 778 q 370 724 370 756 l 370 720 q 380 703 380 710 l 380 698 q 370 680 380 690 l 372 680 q 550 568 505 680 q 585 305 571 540 q 601 104 601 144 q 519 77 601 77 q 466 74 519 74 l 465 74 q 435 165 435 74 q 389 501 410 501 q 317 545 363 545 l 296 545 q 201 494 242 545 q 184 414 184 467 l 184 407 q 207 79 184 352 q 157 47 207 47 q 72 41 121 43 q 40 113 40 41 q 0 606 40 123 q 61 640 0 640 q 128 644 102 644 l 130 644 q 157 602 152 644 q 172 593 163 593 q 212 627 179 593 q 307 671 273 671 q 347 678 326 678 l 347 682 q 338 698 338 691 l 338 701 q 347 719 338 709 l 347 1493 q 354 1500 347 1496 m 328 605 q 359 575 328 579 q 385 606 385 581 q 366 631 378 631 l 366 623 q 359 615 366 620 l 354 615 q 347 623 351 615 l 347 631 l 345 631 q 328 605 328 621 z "},"o":{"ha":663,"x_min":0,"x_max":654,"o":"m 329 1503 l 334 1503 q 342 1495 337 1503 l 342 710 l 344 710 q 368 742 344 721 q 390 764 373 764 l 392 764 q 414 740 410 764 q 393 720 408 720 l 388 720 q 373 727 381 720 q 346 662 346 696 l 346 659 q 357 640 357 647 l 357 635 q 342 616 357 622 l 342 597 q 551 518 462 597 q 635 378 615 450 q 652 283 652 320 q 654 239 654 250 q 510 -16 654 77 q 401 -57 434 -57 q 327 -68 385 -64 q 28 126 111 -68 q 0 285 0 201 l 0 296 q 57 468 0 381 q 144 546 123 546 q 321 597 231 597 l 321 618 q 313 635 313 627 l 313 638 q 321 656 313 646 l 321 1495 q 329 1503 321 1498 m 301 536 q 334 505 301 510 q 362 538 362 511 q 342 564 355 564 l 342 555 q 334 547 342 552 l 329 547 q 321 555 326 547 l 321 564 l 319 564 q 301 536 301 554 m 172 291 q 244 93 172 165 q 321 63 286 63 l 344 63 q 449 117 399 63 q 482 235 482 161 q 379 457 482 400 q 321 468 356 465 q 224 433 274 468 q 172 291 172 386 z "},"p":{"ha":669,"x_min":0,"x_max":654,"o":"m 397 1501 l 403 1501 q 410 1495 406 1501 l 410 753 l 412 753 q 435 783 412 763 q 456 804 440 804 l 458 804 q 479 781 476 804 q 460 762 474 762 l 454 762 q 440 769 448 762 q 414 707 414 739 l 414 703 q 424 685 424 692 l 424 680 q 410 662 424 668 l 410 648 q 538 591 458 648 q 624 466 600 529 q 654 315 654 374 q 652 290 652 303 q 654 282 652 286 q 611 131 654 218 q 387 12 535 12 q 255 54 326 12 q 246 56 252 56 q 237 43 237 46 q 239 42 237 42 l 237 29 l 237 28 l 282 -231 q 210 -264 282 -264 q 149 -271 169 -271 l 147 -271 q 117 -234 121 -271 l 0 562 q 59 594 0 591 q 130 603 67 594 q 164 562 151 603 l 173 560 q 210 591 184 560 q 324 642 274 642 q 376 650 324 648 l 391 650 l 391 664 q 381 680 381 673 l 381 684 q 391 701 381 691 l 391 1495 q 397 1501 391 1497 m 371 585 q 403 555 371 559 q 429 587 429 561 q 410 612 422 612 l 410 603 q 403 596 410 600 l 397 596 q 391 603 395 596 l 391 612 l 389 612 q 371 585 371 602 m 193 343 q 262 157 193 226 q 333 129 307 129 q 471 208 437 129 q 486 295 486 239 q 391 505 483 455 q 333 517 363 517 q 199 412 227 517 q 193 343 193 386 z "},"q":{"ha":699,"x_min":0,"x_max":699,"o":"m 271 1499 l 276 1499 q 283 1492 279 1499 l 283 799 l 286 799 q 310 831 286 810 q 332 853 315 853 l 334 853 q 356 829 353 853 q 336 808 351 808 l 330 808 q 315 816 323 808 q 288 751 288 785 l 288 747 q 298 728 298 736 l 298 723 q 283 704 298 710 l 283 701 l 306 701 q 431 667 403 689 q 509 600 450 667 q 520 596 515 596 q 543 626 532 596 q 562 635 553 635 q 694 604 694 620 q 699 585 699 601 q 530 -266 556 -136 q 500 -283 519 -283 q 362 -241 362 -263 l 362 -231 q 422 52 422 39 l 422 55 q 416 70 422 58 l 405 70 q 281 35 332 35 l 271 35 q 24 197 99 35 q 0 320 0 257 q 69 568 0 455 q 138 646 79 591 q 263 696 213 696 l 263 706 q 254 723 254 715 l 254 726 q 263 745 254 734 l 263 1492 q 271 1499 263 1495 m 243 624 q 276 592 243 597 q 304 626 304 598 q 283 652 297 652 l 283 642 q 276 635 283 640 l 271 635 q 263 642 267 635 l 263 652 l 261 652 q 243 624 243 642 m 176 311 q 250 172 176 218 q 311 154 288 154 q 459 254 418 154 q 487 398 487 319 q 395 551 487 509 q 341 560 366 559 q 179 378 220 560 q 176 311 176 334 z "},"r":{"ha":456,"x_min":0,"x_max":454,"o":"m 119 1506 l 125 1506 q 132 1499 128 1506 l 132 783 l 134 783 q 158 814 134 793 q 180 836 163 836 l 182 836 q 204 812 201 836 q 184 792 199 792 l 178 792 q 163 800 172 792 q 136 735 136 769 l 136 731 q 147 713 147 720 l 147 707 q 132 689 147 695 l 132 685 q 208 667 208 680 q 212 650 212 655 l 212 625 q 222 597 212 603 q 258 623 233 597 q 393 676 325 676 l 408 676 q 454 637 454 676 q 434 519 448 519 q 419 516 427 516 l 410 516 q 370 519 402 516 q 224 442 261 519 q 189 292 201 420 q 160 60 174 60 q 138 54 146 54 q 2 83 2 59 l 0 95 q 54 672 48 655 q 88 689 63 689 q 112 687 104 687 l 112 691 q 103 707 103 701 l 103 711 q 112 730 103 719 l 112 1499 q 119 1506 112 1501 m 92 610 q 125 578 92 583 q 153 612 153 585 q 132 637 146 637 l 132 628 q 125 621 132 625 l 119 621 q 112 628 117 621 l 112 637 l 111 637 q 92 610 92 627 z "},"s":{"ha":595,"x_min":0,"x_max":589,"o":"m 268 1503 l 274 1503 q 281 1496 277 1503 l 281 718 l 283 718 q 343 761 283 736 q 366 741 366 757 l 366 735 q 341 714 366 718 q 321 733 330 714 q 281 662 281 709 l 281 658 q 292 640 292 647 l 292 634 q 285 618 292 627 l 298 618 q 549 495 488 618 q 564 444 564 461 l 564 441 q 536 416 564 416 l 459 416 q 439 414 452 416 q 380 473 409 414 q 294 503 341 503 q 189 458 205 503 l 187 444 l 187 441 q 362 353 187 380 q 517 298 456 334 q 589 163 589 248 q 532 21 589 87 q 279 -54 448 -54 q 92 -5 191 -54 q 2 122 33 26 q 0 142 0 135 l 0 146 q 26 169 0 165 l 132 169 q 167 139 155 169 q 218 81 178 103 q 302 62 255 62 q 380 85 338 62 q 410 144 410 109 l 410 146 q 216 242 410 210 q 56 308 89 275 q 9 420 9 355 q 36 519 18 490 q 161 604 68 574 q 255 618 222 618 q 248 634 248 627 l 248 637 q 260 656 251 656 l 260 1496 q 268 1503 260 1499 m 240 551 q 274 519 240 524 q 302 553 302 526 q 281 579 295 579 l 281 570 q 274 562 281 567 l 268 562 q 260 570 265 562 l 260 579 l 258 579 q 240 551 240 569 z "},"t":{"ha":477,"x_min":0,"x_max":467,"o":"m 178 1501 l 184 1501 q 193 1493 188 1501 l 193 953 l 195 953 q 220 987 195 964 q 244 1010 226 1010 l 246 1010 q 270 985 266 1010 q 248 963 264 963 l 242 963 q 227 970 235 963 q 197 901 197 938 l 197 897 q 208 878 208 885 l 208 871 q 193 852 208 858 l 193 848 l 199 848 q 246 850 222 848 q 288 802 288 850 q 312 655 288 655 q 332 651 315 652 q 395 653 374 653 l 399 655 q 435 595 435 655 q 437 557 437 581 q 417 534 437 547 q 314 518 314 526 q 304 490 306 506 q 332 143 319 143 q 391 115 349 115 q 435 117 431 117 q 465 54 465 117 q 467 7 465 28 q 387 -30 467 -30 q 371 -32 385 -32 l 353 -32 q 345 -34 349 -32 l 342 -32 q 326 -34 340 -32 q 314 -32 315 -32 q 308 -34 311 -32 q 175 16 231 -34 q 139 105 146 55 q 117 492 121 483 q 81 514 105 514 q 45 510 68 514 q 2 559 2 510 q 0 589 2 584 q 28 633 0 633 q 34 635 28 635 l 36 635 q 107 663 107 635 q 109 675 107 672 l 101 812 q 165 846 101 846 l 171 846 l 171 854 q 161 871 161 864 l 161 876 q 171 895 161 884 l 171 1493 q 178 1501 171 1497 m 149 766 q 184 732 149 738 q 214 768 214 739 q 193 796 207 796 l 193 786 q 184 778 193 783 l 178 778 q 171 786 176 778 l 171 796 l 169 796 q 149 766 149 785 z "},"u":{"ha":647,"x_min":0,"x_max":640,"o":"m 428 1501 l 433 1501 q 439 1495 435 1501 l 439 677 l 441 677 q 461 705 441 686 q 481 724 466 724 l 482 724 q 502 703 498 724 q 484 685 496 685 l 479 685 q 467 692 473 685 q 442 635 442 665 l 442 632 q 452 616 452 623 l 452 611 q 439 595 452 600 l 465 603 l 471 603 q 502 550 490 603 q 640 103 640 115 l 640 100 q 572 64 640 79 q 524 52 540 52 q 492 87 513 52 q 483 90 486 90 q 447 40 471 79 q 264 -34 374 -34 l 257 -34 q 127 53 180 -34 q 22 367 101 100 q 0 442 0 432 q 56 476 0 465 q 124 495 109 495 q 168 400 144 495 q 257 140 235 182 q 326 101 287 101 l 333 101 q 428 155 389 101 q 441 201 441 178 l 441 214 q 359 507 441 260 l 347 549 q 394 582 347 572 l 421 597 q 413 611 413 605 l 413 614 q 421 631 413 621 l 421 1495 q 428 1501 421 1497 m 404 526 q 433 498 404 503 q 456 528 456 504 q 439 550 450 550 l 439 542 q 433 536 439 539 l 428 536 q 421 542 425 536 l 421 550 l 420 550 q 404 526 404 541 z "},"v":{"ha":540,"x_min":0,"x_max":530,"o":"m 71 1497 l 76 1497 q 83 1490 79 1497 l 83 782 l 85 782 q 106 810 85 791 q 127 831 111 831 l 129 831 q 149 809 146 831 q 130 790 144 790 l 125 790 q 112 797 119 790 q 86 738 86 769 l 86 734 q 96 718 96 724 l 96 712 q 83 696 96 701 l 83 686 q 139 665 83 683 q 157 635 157 654 l 157 374 q 159 288 157 343 q 171 276 159 282 q 206 313 180 276 q 384 574 228 349 q 411 582 395 581 q 523 545 505 555 q 530 532 527 539 q 401 347 530 518 q 237 119 378 311 q 188 58 218 87 q 174 54 182 54 l 172 54 q 32 96 158 54 q 15 191 15 96 l 14 207 l 15 210 q 0 682 1 549 q 22 701 0 696 q 64 689 36 699 l 64 697 q 56 712 56 706 l 56 715 q 64 732 56 723 l 64 1490 q 71 1497 64 1493 m 45 623 q 76 594 45 598 q 102 625 102 600 q 83 648 95 648 l 83 640 q 76 633 83 637 l 71 633 q 64 640 68 633 l 64 648 l 62 648 q 45 623 45 639 z "},"w":{"ha":937,"x_min":0,"x_max":924,"o":"m 454 1502 l 459 1502 q 467 1495 462 1502 l 467 665 l 468 665 q 491 696 468 676 q 513 717 496 717 l 514 717 q 536 694 532 717 q 516 674 530 674 l 511 674 q 496 682 505 674 q 470 619 470 652 l 470 616 q 481 598 481 605 l 481 593 q 470 575 481 585 l 488 575 q 545 561 534 575 q 593 380 553 541 q 641 205 627 236 l 646 201 l 648 201 q 678 267 665 201 q 755 548 747 517 q 774 570 765 567 q 813 575 787 575 l 890 575 q 924 550 924 575 q 758 20 901 471 q 710 -34 747 -34 q 655 -32 688 -34 q 612 -34 623 -34 q 566 -14 577 -34 q 475 320 505 216 q 463 336 469 334 l 457 336 q 418 212 446 336 q 370 20 410 186 q 326 -32 361 -32 l 216 -32 q 174 -7 183 -32 q 0 548 11 509 l 0 555 q 43 575 0 575 l 111 575 q 163 562 163 575 q 189 488 172 562 q 263 215 199 456 q 276 199 269 203 l 281 199 q 319 320 293 199 q 376 550 353 446 q 427 575 383 575 l 447 575 l 447 576 q 438 593 438 586 l 438 596 q 447 614 438 604 l 447 1495 q 454 1502 447 1498 m 427 498 q 459 468 427 473 q 486 500 486 473 q 467 525 479 525 l 467 516 q 459 509 467 513 l 454 509 q 447 516 451 509 l 447 525 l 445 525 q 427 498 427 515 z "},"x":{"ha":654,"x_min":0,"x_max":667,"o":"m 261 1501 l 266 1501 q 273 1495 269 1501 l 273 658 l 274 658 q 296 686 274 667 q 316 706 300 706 l 317 706 q 337 684 334 706 q 319 666 332 666 l 314 666 q 301 673 308 666 q 276 614 276 645 l 276 611 q 286 595 286 601 l 286 589 q 273 573 286 578 l 273 563 q 336 533 323 552 l 377 400 q 389 390 387 390 l 395 390 q 490 462 410 390 q 534 481 514 481 l 535 481 q 658 445 549 481 q 667 432 667 439 l 667 425 q 536 320 647 404 q 444 245 451 255 q 437 227 437 237 q 532 -79 442 201 l 534 -87 q 519 -102 534 -96 q 372 -47 372 -66 q 321 117 366 -36 q 302 131 311 131 q 199 53 292 131 q 138 15 155 15 q 8 53 125 15 q 0 66 0 62 q 73 133 0 81 q 244 272 73 134 q 258 292 251 279 q 184 533 253 319 q 173 574 178 549 l 173 576 q 191 588 178 588 q 254 570 201 586 l 254 574 q 246 589 246 583 l 246 593 q 254 610 246 600 l 254 1495 q 261 1501 254 1497 m 236 501 q 266 473 236 477 q 291 503 291 479 q 273 526 284 526 l 273 518 q 266 511 273 515 l 261 511 q 254 518 258 511 l 254 526 l 252 526 q 236 501 236 517 z "},"y":{"ha":561,"x_min":0,"x_max":542,"o":"m 450 1503 l 455 1503 q 462 1497 458 1503 l 462 684 l 463 684 q 485 712 463 694 q 505 732 490 732 l 507 732 q 527 711 524 732 q 508 692 522 692 l 503 692 q 490 699 497 692 q 465 641 465 671 l 465 637 q 475 621 475 627 l 475 616 q 462 599 475 604 l 462 594 l 463 594 q 525 609 512 609 q 542 591 538 609 q 492 -94 507 62 q 469 -161 480 -144 q 351 -239 428 -216 q 269 -258 288 -258 q 223 -158 241 -258 q 272 -130 223 -134 q 336 -91 320 -117 q 345 -44 345 -70 q 241 111 345 -20 q 0 435 60 352 l 0 446 q 70 477 0 463 q 127 494 118 494 l 135 494 q 178 449 153 494 q 349 204 191 433 q 367 191 358 191 l 370 191 q 382 262 382 191 q 393 564 389 564 q 444 587 393 575 l 444 601 q 435 616 435 609 l 435 619 q 444 635 435 626 l 444 1497 q 450 1503 444 1499 m 425 527 q 455 499 425 503 q 480 529 480 504 q 462 552 473 552 l 462 544 q 455 537 462 541 l 450 537 q 444 544 448 537 l 444 552 l 441 552 q 425 527 425 543 z "},"z":{"ha":628,"x_min":0,"x_max":625,"o":"m 357 1501 l 363 1501 q 369 1495 366 1501 l 369 744 l 371 744 q 393 772 371 753 q 412 792 397 792 l 414 792 q 434 770 431 792 q 416 752 429 752 l 411 752 q 397 759 405 752 q 372 701 372 731 l 372 697 q 382 680 382 687 l 382 675 q 378 664 382 670 q 436 679 429 679 q 475 607 462 679 q 482 579 482 595 q 426 446 482 559 q 313 200 331 248 q 311 193 313 199 q 319 182 311 191 q 467 220 342 182 q 584 252 568 252 q 625 166 612 252 l 625 160 q 547 123 625 139 q 146 7 161 7 q 111 73 125 7 q 105 102 105 86 l 105 110 q 144 206 105 131 q 275 484 144 208 l 275 496 q 260 504 275 500 l 254 504 q 47 446 246 504 l 43 446 q 7 507 20 446 q 0 536 1 518 q 75 574 0 558 q 351 656 76 576 l 351 661 q 342 675 342 669 l 342 679 q 351 695 342 686 l 351 1495 q 357 1501 351 1497 m 333 587 q 363 559 333 564 q 387 589 387 564 q 369 612 381 612 l 369 604 q 363 597 369 602 l 357 597 q 351 604 355 597 l 351 612 l 349 612 q 333 587 333 603 z "},"{":{"ha":688,"x_min":163,"x_max":600,"o":"m 163 473 q 314 522 279 477 q 349 612 349 566 l 349 929 q 401 1025 349 979 q 526 1071 453 1071 l 600 1071 l 600 1037 l 538 1037 q 466 1014 497 1037 q 434 952 435 991 l 434 613 q 393 506 434 557 q 296 454 352 454 l 296 452 q 393 401 352 452 q 435 294 435 350 l 434 -45 q 466 -107 435 -85 q 538 -130 497 -130 l 600 -130 l 600 -164 l 526 -164 q 401 -118 453 -164 q 349 -22 349 -73 l 349 295 q 314 385 349 340 q 163 433 279 429 l 163 473 z "},"|":{"ha":688,"x_min":290,"x_max":398,"o":"m 290 1069 l 398 1069 l 398 -283 l 290 -283 l 290 1069 z "},"}":{"ha":688,"x_min":88,"x_max":525,"o":"m 525 433 q 374 385 408 429 q 339 295 339 340 l 339 -22 q 287 -118 338 -73 q 161 -164 235 -164 l 88 -164 l 88 -130 l 149 -130 q 222 -107 191 -130 q 254 -45 253 -85 l 253 294 q 294 401 253 350 q 392 452 336 452 l 392 454 q 295 506 336 454 q 254 613 254 557 l 254 952 q 222 1014 253 991 q 149 1037 191 1037 l 88 1037 l 88 1071 l 161 1071 q 287 1025 235 1071 q 339 929 339 979 l 339 612 q 374 522 339 566 q 525 473 408 477 l 525 433 z "},"~":{"ha":688,"x_min":64,"x_max":626,"o":"m 626 595 l 626 490 q 543 424 583 441 q 465 406 503 406 q 344 439 424 406 q 224 472 264 472 q 152 453 190 472 q 64 377 113 434 l 64 483 q 147 550 107 532 q 224 568 187 568 q 348 534 268 568 q 465 500 427 500 q 538 519 500 500 q 626 595 576 538 z "},"¡":{"ha":456,"x_min":0,"x_max":0,"o":""},"¢":{"ha":772,"x_min":0,"x_max":0,"o":""},"£":{"ha":688,"x_min":52,"x_max":635,"o":"m 507 913 q 399 935 458 935 l 397 935 q 269 866 330 935 q 212 703 212 803 q 212 682 212 692 q 248 497 212 591 l 492 497 l 492 456 l 266 456 q 287 416 275 436 q 311 322 311 373 q 201 68 311 213 l 473 68 q 602 157 562 68 l 635 157 l 565 0 l 77 0 l 78 34 q 205 317 205 195 q 182 414 205 370 q 161 456 170 436 l 52 456 l 52 497 l 143 497 q 104 669 104 594 q 188 904 104 822 q 395 986 271 986 l 398 986 q 524 977 449 986 q 599 954 599 967 l 599 844 l 559 844 q 507 913 556 886 z "},"¤":{"ha":688,"x_min":83,"x_max":604,"o":"m 237 380 q 304 341 265 353 q 344 336 324 336 q 383 341 363 336 q 450 380 422 353 q 489 447 477 408 q 495 486 495 467 q 489 526 495 506 q 450 593 477 565 q 382 631 422 620 q 343 637 363 637 q 304 631 323 637 q 237 593 264 619 q 199 526 211 566 q 193 486 193 506 q 199 448 193 467 q 237 380 210 408 m 163 612 l 83 692 l 137 747 l 217 667 q 284 699 247 688 q 345 708 314 708 q 401 700 372 708 q 470 667 439 688 l 550 747 l 604 692 l 525 613 q 557 544 546 582 q 566 486 566 515 q 557 429 566 458 q 525 359 546 391 l 604 280 l 550 225 l 470 305 q 401 273 439 283 q 344 264 373 264 q 286 273 315 264 q 217 305 248 283 l 137 225 l 83 280 l 163 359 q 130 429 141 391 q 122 486 122 458 q 131 545 122 516 q 163 612 142 583 z "},"¥":{"ha":856,"x_min":5,"x_max":864,"o":"m 371 153 l 370 317 q 369 340 370 330 q 366 362 368 351 l 37 363 q 23 367 28 363 q 18 380 18 372 q 23 393 18 389 q 37 397 27 397 l 354 397 l 272 514 l 39 514 q 23 518 27 514 q 18 530 18 522 q 22 544 18 540 q 37 547 26 547 l 245 547 q 172 652 216 586 q 18 786 83 786 q 9 790 14 786 q 5 798 5 793 q 13 816 5 810 q 35 822 20 822 q 118 817 53 822 q 229 811 183 811 l 289 811 q 317 807 311 811 q 322 789 322 802 q 312 779 322 783 q 286 775 302 775 q 274 777 282 775 q 261 778 265 778 q 236 771 245 778 q 227 754 227 765 q 238 719 227 742 q 269 667 249 696 l 376 517 q 399 481 385 504 q 447 433 427 433 q 458 437 453 433 q 468 447 463 440 l 656 715 q 665 733 661 724 q 668 750 668 743 q 661 768 668 762 q 636 778 654 774 q 608 781 626 779 q 576 798 576 783 q 582 813 576 808 q 599 818 587 818 q 609 817 601 818 q 682 812 647 812 l 777 812 q 821 813 797 812 q 846 814 844 814 q 858 811 853 814 q 864 803 863 808 q 838 780 864 784 q 820 777 826 778 q 720 697 777 766 q 712 687 715 691 l 597 547 l 817 547 q 833 543 827 547 q 839 532 839 539 q 835 518 839 522 q 819 514 831 514 l 571 514 q 506 438 540 475 q 470 397 471 400 l 817 397 q 834 394 829 397 q 839 382 839 390 q 834 368 839 372 q 819 363 829 363 l 460 363 q 459 342 460 355 q 458 322 458 329 l 460 176 q 464 75 460 99 q 477 45 467 50 q 550 32 498 33 q 603 11 603 31 q 596 -3 603 3 q 579 -8 589 -8 q 555 -5 578 -8 q 511 -3 532 -3 q 370 -5 450 -3 q 273 -8 290 -8 q 246 -5 252 -8 q 240 5 240 -3 q 245 18 240 14 q 271 26 251 22 q 288 30 277 28 q 350 52 338 41 q 366 83 361 60 q 371 153 371 106 z "},"¦":{"ha":688,"x_min":290,"x_max":398,"o":"m 290 252 l 398 252 l 398 -283 l 290 -283 l 290 252 m 290 1070 l 398 1070 l 398 535 l 290 535 l 290 1070 z "},"§":{"ha":688,"x_min":115,"x_max":572,"o":"m 370 218 q 435 254 408 229 q 485 366 485 298 q 484 373 485 370 l 483 373 q 480 391 482 382 q 404 477 465 433 q 318 497 363 497 q 233 467 265 497 q 201 387 201 437 q 370 218 201 304 m 316 -235 q 441 -188 393 -231 q 490 -76 490 -144 q 276 111 490 9 q 157 204 193 155 q 121 324 121 254 q 182 485 121 425 q 297 541 227 529 l 270 553 q 151 646 186 597 q 115 766 115 696 q 176 927 115 867 q 322 985 231 981 q 334 986 328 986 l 336 986 q 446 975 380 986 q 512 947 512 964 l 512 815 l 477 815 q 423 905 474 870 q 322 939 376 937 l 312 939 q 227 909 259 939 q 195 829 195 879 q 390 647 195 740 q 529 550 491 602 q 566 422 566 498 q 498 231 566 307 q 431 188 466 205 q 535 108 504 150 q 572 -19 572 56 q 504 -211 572 -135 q 316 -282 420 -280 l 316 -281 q 307 -282 312 -282 l 305 -282 q 195 -271 260 -282 q 129 -243 129 -260 l 129 -111 l 163 -111 q 218 -201 167 -166 q 316 -235 264 -231 z "},"¨":{"ha":694,"x_min":142,"x_max":536,"o":"m 151 874 l 199 923 q 216 931 208 931 q 235 922 224 931 l 281 872 q 288 855 288 863 q 280 837 288 846 l 233 786 q 216 774 222 774 q 199 783 207 774 l 148 841 q 142 857 142 849 q 151 874 142 865 m 399 874 l 447 923 q 464 931 456 931 q 482 922 471 931 l 529 872 q 536 855 536 863 q 528 838 536 846 l 481 786 q 464 774 469 774 q 447 783 454 774 l 395 842 q 389 857 389 849 q 399 874 389 865 z "},"©":{"ha":1135,"x_min":68,"x_max":1067,"o":"m 570 987 q 760 949 668 987 q 922 840 851 911 q 1029 679 991 772 q 1067 487 1067 586 q 1029 296 1067 387 q 919 133 991 204 q 757 25 848 62 q 565 -12 666 -12 q 376 25 466 -12 q 215 134 287 63 q 105 295 143 205 q 68 487 68 386 q 105 679 68 587 q 214 840 143 770 q 375 949 283 911 q 570 987 468 987 m 242 812 q 143 663 178 747 q 109 487 109 579 q 143 311 109 394 q 243 163 178 229 q 392 63 310 98 q 566 28 474 28 q 742 63 659 28 q 890 161 825 97 q 991 312 956 228 q 1027 487 1027 395 q 991 663 1027 578 q 893 812 956 748 q 744 912 828 877 q 569 947 660 947 q 391 912 476 947 q 242 812 307 877 m 587 151 q 408 197 490 151 q 281 323 325 243 q 238 488 238 402 q 282 653 238 573 q 410 778 327 733 q 582 823 492 823 q 633 819 608 823 q 684 805 658 814 q 690 804 688 804 q 708 825 703 804 l 736 825 l 785 690 l 755 690 q 667 774 720 754 q 567 792 618 792 l 557 792 q 444 744 498 787 q 361 624 389 701 q 339 499 339 563 q 340 465 339 482 q 388 313 348 383 q 489 210 427 243 q 602 182 538 183 q 733 220 686 182 q 781 305 781 258 l 817 305 l 817 237 q 751 179 817 206 q 587 151 686 151 m 553 1507 l 562 1507 q 572 1496 566 1507 l 572 1051 q 583 1029 583 1040 l 583 1021 q 572 1000 583 1012 l 572 926 q 562 916 572 922 l 553 916 q 543 926 549 916 l 543 994 q 518 1027 522 994 q 537 1054 524 1054 q 494 1157 537 1110 q 472 1146 482 1146 l 464 1146 q 434 1176 444 1146 q 467 1211 439 1211 l 469 1211 q 507 1173 492 1211 q 540 1130 531 1158 l 543 1130 l 543 1496 q 553 1507 543 1500 z "},"ª":{"ha":439,"x_min":0,"x_max":0,"o":""},"«":{"ha":640,"x_min":118,"x_max":572,"o":"m 118 325 l 350 530 l 359 530 l 359 505 l 220 325 l 359 144 l 359 119 l 350 119 l 118 325 m 330 325 l 562 530 l 572 530 l 572 505 l 433 325 l 572 144 l 572 119 l 562 119 l 330 325 z "},"¬":{"ha":688,"x_min":59,"x_max":629,"o":"m 59 520 l 629 520 l 629 187 l 628 186 l 562 186 l 562 452 l 59 452 l 59 520 z "},"®":{"ha":1135,"x_min":68,"x_max":1067,"o":"m 509 745 l 509 492 l 511 486 q 549 431 527 448 q 587 416 569 416 l 591 416 q 633 443 612 419 q 665 509 654 466 q 673 578 673 543 q 673 597 673 587 q 654 681 670 642 q 615 733 637 720 q 572 745 593 745 l 509 745 m 667 391 l 723 312 q 825 216 791 216 l 848 216 l 848 182 l 613 182 l 613 216 l 644 216 q 664 231 664 216 q 617 309 664 251 l 566 378 q 509 406 538 378 l 509 298 q 534 216 509 216 l 570 216 l 570 182 l 355 182 l 355 216 l 385 216 q 410 298 410 216 l 410 663 q 385 745 410 745 l 355 745 l 355 793 l 597 793 q 682 764 640 792 q 744 687 722 736 q 766 584 766 637 q 745 482 766 531 q 667 391 723 433 m 570 987 q 760 949 668 987 q 922 840 851 911 q 1029 679 991 772 q 1067 487 1067 586 q 1029 296 1067 387 q 919 133 991 204 q 757 25 848 62 q 565 -12 666 -12 q 376 25 466 -12 q 215 134 287 63 q 105 295 143 205 q 68 487 68 386 q 105 679 68 587 q 214 840 143 770 q 375 949 283 911 q 570 987 468 987 m 242 812 q 143 663 178 747 q 109 487 109 579 q 143 311 109 394 q 243 163 178 229 q 392 63 310 98 q 566 28 474 28 q 742 63 659 28 q 890 161 825 97 q 991 312 956 228 q 1027 487 1027 395 q 991 663 1027 578 q 893 812 956 748 q 744 912 828 877 q 569 947 660 947 q 391 912 476 947 q 242 812 307 877 m 553 1507 l 562 1507 q 572 1496 566 1507 l 572 1051 q 583 1029 583 1040 l 583 1021 q 572 1000 583 1012 l 572 926 q 562 916 572 922 l 553 916 q 543 926 549 916 l 543 994 q 518 1027 522 994 q 537 1054 524 1054 q 494 1157 537 1110 q 472 1146 482 1146 l 464 1146 q 434 1176 444 1146 q 467 1211 439 1211 l 469 1211 q 507 1173 492 1211 q 540 1130 531 1158 l 543 1130 l 543 1496 q 553 1507 543 1500 z "},"¯":{"ha":454,"x_min":0,"x_max":0,"o":""},"°":{"ha":457,"x_min":41,"x_max":418,"o":"m 230 930 q 130 889 172 930 q 88 789 88 848 q 130 689 88 730 q 230 648 171 648 q 330 689 289 648 q 370 789 370 730 q 329 889 370 848 q 230 930 288 930 m 230 978 q 363 923 308 978 q 418 789 418 867 q 362 656 418 712 q 229 601 307 601 q 95 656 149 601 q 41 789 41 711 q 96 923 41 868 q 230 978 151 978 z "},"±":{"ha":688,"x_min":0,"x_max":0,"o":""},"²":{"ha":688,"x_min":0,"x_max":0,"o":""},"³":{"ha":688,"x_min":0,"x_max":0,"o":""},"´":{"ha":694,"x_min":214,"x_max":527,"o":"m 412 932 q 449 964 435 956 q 477 972 463 972 q 513 959 499 972 q 527 924 527 945 q 516 896 527 909 q 485 869 506 882 l 261 731 l 214 731 l 412 932 z "},"µ":{"ha":800,"x_min":0,"x_max":0,"o":""},"¶":{"ha":694,"x_min":63,"x_max":630,"o":"m 630 973 l 630 926 l 544 926 l 544 0 l 488 0 l 488 926 l 376 926 l 376 0 l 319 0 l 319 500 q 132 570 201 506 q 63 736 63 634 q 136 908 63 843 q 330 973 209 973 l 630 973 z "},"·":{"ha":378,"x_min":20,"x_max":192,"o":"m 112 1504 l 117 1504 q 123 1497 119 1504 l 123 164 q 129 147 129 149 l 129 146 q 123 131 129 137 l 123 121 l 162 121 q 192 94 192 121 l 192 -12 q 177 -43 192 -43 q 144 -47 177 -46 l 67 -47 q 22 -22 22 -47 q 20 7 20 -7 l 20 87 q 40 121 20 113 l 105 121 l 105 125 q 89 144 92 125 l 89 147 q 100 164 89 157 q 74 227 100 199 q 65 220 73 225 l 57 220 q 39 239 39 223 l 39 242 q 57 260 39 256 l 60 260 q 80 239 75 260 q 104 208 104 220 l 105 208 l 105 1497 q 112 1504 105 1500 m 87 67 q 117 41 92 41 q 142 67 136 41 q 127 92 142 83 l 123 92 q 117 79 123 79 l 112 79 q 104 92 108 79 q 87 67 87 83 z "},"∙":{"ha":378,"x_min":20,"x_max":192,"o":"m 112 1504 l 117 1504 q 123 1497 119 1504 l 123 164 q 129 147 129 149 l 129 146 q 123 131 129 137 l 123 121 l 162 121 q 192 94 192 121 l 192 -12 q 177 -43 192 -43 q 144 -47 177 -46 l 67 -47 q 22 -22 22 -47 q 20 7 20 -7 l 20 87 q 40 121 20 113 l 105 121 l 105 125 q 89 144 92 125 l 89 147 q 100 164 89 157 q 74 227 100 199 q 65 220 73 225 l 57 220 q 39 239 39 223 l 39 242 q 57 260 39 256 l 60 260 q 80 239 75 260 q 104 208 104 220 l 105 208 l 105 1497 q 112 1504 105 1500 m 87 67 q 117 41 92 41 q 142 67 136 41 q 127 92 142 83 l 123 92 q 117 79 123 79 l 112 79 q 104 92 108 79 q 87 67 87 83 z "},"¸":{"ha":694,"x_min":244,"x_max":521,"o":"m 244 -197 q 347 -232 302 -232 q 411 -217 392 -232 q 431 -172 431 -203 q 397 -129 431 -142 q 328 -118 370 -118 q 305 -119 317 -118 l 338 0 l 380 0 l 355 -71 q 397 -67 377 -68 q 488 -95 456 -67 q 521 -172 521 -122 q 481 -253 521 -223 q 372 -283 441 -283 q 244 -262 298 -283 l 244 -197 z "},"¹":{"ha":688,"x_min":0,"x_max":0,"o":""},"º":{"ha":487,"x_min":0,"x_max":0,"o":""},"»":{"ha":640,"x_min":68,"x_max":522,"o":"m 78 119 l 68 119 l 68 144 l 208 325 l 68 505 l 68 530 l 78 530 l 310 325 l 78 119 m 290 119 l 281 119 l 281 144 l 420 325 l 281 505 l 281 530 l 290 530 l 522 325 l 290 119 z "},"¼":{"ha":1158,"x_min":0,"x_max":0,"o":""},"½":{"ha":1332,"x_min":0,"x_max":0,"o":""},"¾":{"ha":1158,"x_min":0,"x_max":0,"o":""},"¿":{"ha":507,"x_min":0,"x_max":0,"o":""},"À":{"ha":1044,"x_min":0,"x_max":0,"o":""},"Á":{"ha":1044,"x_min":0,"x_max":0,"o":""},"Â":{"ha":1044,"x_min":0,"x_max":0,"o":""},"Ã":{"ha":1044,"x_min":0,"x_max":0,"o":""},"Ä":{"ha":1044,"x_min":0,"x_max":0,"o":""},"Å":{"ha":1044,"x_min":0,"x_max":0,"o":""},"Æ":{"ha":1436,"x_min":0,"x_max":0,"o":""},"Ç":{"ha":949,"x_min":0,"x_max":0,"o":""},"È":{"ha":781,"x_min":0,"x_max":0,"o":""},"É":{"ha":781,"x_min":0,"x_max":0,"o":""},"Ê":{"ha":781,"x_min":0,"x_max":0,"o":""},"Ë":{"ha":781,"x_min":0,"x_max":0,"o":""},"Ì":{"ha":446,"x_min":0,"x_max":0,"o":""},"Í":{"ha":446,"x_min":0,"x_max":0,"o":""},"Î":{"ha":446,"x_min":0,"x_max":0,"o":""},"Ï":{"ha":446,"x_min":0,"x_max":0,"o":""},"Ð":{"ha":1029,"x_min":0,"x_max":0,"o":""},"Ñ":{"ha":1054,"x_min":0,"x_max":0,"o":""},"Ò":{"ha":1095,"x_min":0,"x_max":0,"o":""},"Ó":{"ha":1095,"x_min":0,"x_max":0,"o":""},"Ô":{"ha":1095,"x_min":0,"x_max":0,"o":""},"Õ":{"ha":1095,"x_min":0,"x_max":0,"o":""},"Ö":{"ha":1095,"x_min":0,"x_max":0,"o":""},"×":{"ha":688,"x_min":109,"x_max":578,"o":"m 344 419 l 176 252 l 109 319 l 277 486 l 109 654 l 176 721 l 344 553 l 512 721 l 578 654 l 411 486 l 578 319 l 511 252 l 344 419 z "},"Ø":{"ha":1095,"x_min":0,"x_max":0,"o":""},"Ù":{"ha":1018,"x_min":0,"x_max":0,"o":""},"Ú":{"ha":1018,"x_min":0,"x_max":0,"o":""},"Û":{"ha":1018,"x_min":0,"x_max":0,"o":""},"Ü":{"ha":1018,"x_min":0,"x_max":0,"o":""},"Ý":{"ha":836,"x_min":0,"x_max":0,"o":""},"Þ":{"ha":760,"x_min":0,"x_max":0,"o":""},"ß":{"ha":848,"x_min":0,"x_max":0,"o":""},"à":{"ha":625,"x_min":0,"x_max":0,"o":""},"á":{"ha":625,"x_min":0,"x_max":0,"o":""},"â":{"ha":625,"x_min":0,"x_max":0,"o":""},"ã":{"ha":625,"x_min":0,"x_max":0,"o":""},"ä":{"ha":625,"x_min":0,"x_max":0,"o":""},"å":{"ha":625,"x_min":0,"x_max":0,"o":""},"æ":{"ha":986,"x_min":0,"x_max":0,"o":""},"ç":{"ha":614,"x_min":0,"x_max":0,"o":""},"è":{"ha":616,"x_min":0,"x_max":0,"o":""},"é":{"ha":616,"x_min":0,"x_max":0,"o":""},"ê":{"ha":616,"x_min":0,"x_max":0,"o":""},"ë":{"ha":616,"x_min":0,"x_max":0,"o":""},"ì":{"ha":349,"x_min":0,"x_max":0,"o":""},"í":{"ha":349,"x_min":0,"x_max":0,"o":""},"î":{"ha":349,"x_min":0,"x_max":0,"o":""},"ï":{"ha":349,"x_min":0,"x_max":0,"o":""},"ð":{"ha":772,"x_min":0,"x_max":0,"o":""},"ñ":{"ha":751,"x_min":0,"x_max":0,"o":""},"ò":{"ha":685,"x_min":0,"x_max":0,"o":""},"ó":{"ha":685,"x_min":0,"x_max":0,"o":""},"ô":{"ha":685,"x_min":0,"x_max":0,"o":""},"õ":{"ha":685,"x_min":0,"x_max":0,"o":""},"ö":{"ha":685,"x_min":0,"x_max":0,"o":""},"÷":{"ha":688,"x_min":59,"x_max":629,"o":"m 59 439 l 59 534 l 628 534 l 629 533 l 629 439 l 59 439 m 270 277 l 326 334 q 345 343 336 343 q 366 332 354 343 l 420 274 q 429 254 429 263 q 419 233 429 244 l 365 174 q 345 160 351 160 q 326 170 334 160 l 266 238 q 259 256 259 247 q 270 277 259 266 m 270 747 l 326 804 q 345 813 336 813 q 366 802 354 813 l 420 744 q 429 724 429 733 q 419 703 429 714 l 365 644 q 345 630 351 630 q 326 640 334 630 l 266 708 q 259 726 259 717 q 270 747 259 736 z "},"ø":{"ha":685,"x_min":0,"x_max":0,"o":""},"ù":{"ha":718,"x_min":0,"x_max":0,"o":""},"ú":{"ha":718,"x_min":0,"x_max":0,"o":""},"û":{"ha":718,"x_min":0,"x_max":0,"o":""},"ü":{"ha":718,"x_min":0,"x_max":0,"o":""},"ý":{"ha":589,"x_min":0,"x_max":0,"o":""},"þ":{"ha":685,"x_min":0,"x_max":0,"o":""},"ÿ":{"ha":589,"x_min":0,"x_max":0,"o":""},"ı":{"ha":349,"x_min":13,"x_max":321,"o":"m 222 151 q 290 34 222 34 l 321 34 l 321 0 l 22 0 l 22 34 l 53 34 q 121 151 121 34 l 121 444 q 45 496 121 496 l 13 496 l 13 526 q 190 650 163 573 l 222 650 l 222 151 z "},"ˆ":{"ha":694,"x_min":150,"x_max":545,"o":"m 150 732 l 307 972 l 387 972 l 545 732 l 505 732 l 347 878 l 189 732 l 150 732 z "},"ˇ":{"ha":694,"x_min":150,"x_max":545,"o":"m 150 972 l 189 972 l 347 827 l 505 972 l 545 972 l 387 731 l 307 731 l 150 972 z "},"ˉ":{"ha":694,"x_min":172,"x_max":522,"o":"m 172 810 l 172 895 l 522 895 l 522 810 l 172 810 z "},"˘":{"ha":694,"x_min":149,"x_max":545,"o":"m 149 915 l 183 915 q 234 842 195 865 q 347 819 273 819 q 460 842 421 819 q 510 915 498 865 l 545 915 q 481 778 531 825 q 347 732 431 732 q 214 779 264 732 q 149 915 163 825 z "},"˙":{"ha":694,"x_min":277,"x_max":422,"o":"m 286 874 l 333 923 q 342 929 337 927 q 351 931 347 931 q 360 929 355 931 q 368 923 364 927 l 416 871 q 421 865 420 869 q 422 855 422 861 q 420 845 422 849 q 415 837 419 841 l 367 785 q 356 776 359 778 q 351 774 353 774 q 340 776 345 774 q 333 782 336 778 l 282 841 q 278 847 279 844 q 277 857 277 851 q 279 865 277 861 q 286 874 281 869 z "},"˚":{"ha":694,"x_min":227,"x_max":468,"o":"m 279 852 q 298 804 279 824 q 347 785 318 785 q 395 804 375 785 q 414 852 414 824 q 394 900 414 880 q 347 920 374 920 q 299 900 319 920 q 279 852 279 880 m 227 852 q 262 938 227 903 q 347 972 296 972 q 433 938 398 972 q 468 852 468 903 q 433 767 468 802 q 347 732 398 732 q 262 767 296 732 q 227 852 227 802 z "},"˛":{"ha":694,"x_min":250,"x_max":500,"o":"m 434 0 q 359 -81 386 -42 q 332 -157 332 -120 q 351 -208 332 -189 q 400 -227 369 -227 q 447 -217 427 -227 q 481 -184 467 -206 l 500 -195 q 438 -260 475 -237 q 357 -283 401 -283 q 280 -259 310 -283 q 250 -198 250 -235 q 291 -92 250 -146 q 401 0 332 -37 l 434 0 z "},"˜":{"ha":694,"x_min":159,"x_max":548,"o":"m 548 937 q 502 833 534 867 q 416 798 469 798 l 413 798 q 336 814 379 798 q 259 830 292 830 q 218 816 233 830 q 195 768 203 802 l 159 768 q 205 875 172 840 q 292 911 238 911 q 369 895 323 910 q 445 879 412 879 l 448 879 q 487 892 472 879 q 511 937 502 906 l 548 937 z "},"˝":{"ha":694,"x_min":147,"x_max":547,"o":"m 147 732 l 245 917 q 276 960 261 947 q 307 972 290 972 q 340 959 326 972 q 353 927 353 945 q 346 903 353 916 q 326 876 339 890 l 186 732 l 147 732 m 340 732 l 438 917 q 469 960 454 947 q 500 972 484 972 q 533 959 519 972 q 547 927 547 945 q 539 903 547 916 q 519 876 532 890 l 380 732 l 340 732 z "},"–":{"ha":751,"x_min":38,"x_max":713,"o":"m 38 284 l 38 366 l 713 366 l 713 284 l 38 284 z "},"—":{"ha":1389,"x_min":0,"x_max":1389,"o":"m 0 284 l 0 366 l 1389 366 l 1389 284 l 0 284 z "},"‘":{"ha":378,"x_min":0,"x_max":134,"o":"m 62 1503 q 67 1497 67 1499 l 67 1154 l 68 1154 q 85 1177 73 1168 q 106 1197 94 1197 l 107 1197 q 124 1178 121 1197 q 109 1162 119 1162 l 104 1162 q 93 1168 99 1162 q 70 1114 70 1143 q 80 1099 77 1114 q 71 1082 80 1090 l 106 1082 q 134 1054 134 1082 l 134 971 q 106 938 134 938 q 73 912 73 938 q 75 907 75 912 q 121 846 90 861 q 134 805 134 838 q 119 787 130 787 l 115 787 q 81 797 101 787 q 0 935 0 846 q 1 971 1 956 l 1 1055 q 24 1082 1 1082 l 52 1082 l 52 1085 q 45 1097 45 1091 l 45 1101 q 52 1112 45 1106 l 52 1497 q 57 1503 55 1503 l 62 1503 m 52 1055 q 39 1036 39 1049 q 57 1015 42 1015 q 76 1037 73 1015 q 67 1053 71 1053 q 62 1041 67 1041 l 57 1041 q 52 1055 52 1041 z "},"’":{"ha":378,"x_min":0,"x_max":134,"o":"m 73 1503 l 77 1503 q 83 1497 79 1503 l 83 1112 q 89 1101 89 1106 l 89 1097 q 83 1085 89 1091 l 83 1082 l 110 1082 q 133 1055 133 1082 l 133 971 q 134 935 133 956 q 53 797 134 846 q 20 787 33 787 l 16 787 q 0 805 4 787 q 13 846 0 838 q 60 907 44 861 q 62 912 60 912 q 28 938 62 938 q 0 971 0 938 l 0 1054 q 28 1082 0 1082 l 63 1082 q 54 1099 54 1090 q 64 1114 57 1114 q 41 1168 64 1143 q 30 1162 35 1162 l 26 1162 q 10 1178 15 1162 q 27 1197 13 1197 l 28 1197 q 49 1177 41 1197 q 66 1154 61 1168 l 67 1154 l 67 1497 q 73 1503 67 1499 m 83 1055 q 77 1041 83 1041 l 73 1041 q 67 1053 67 1041 q 58 1037 63 1053 q 77 1015 62 1015 q 96 1036 92 1015 q 83 1055 96 1049 z "},"‚":{"ha":378,"x_min":81,"x_max":252,"o":"m 161 191 q 221 146 191 191 q 252 43 252 102 q 203 -110 252 -31 q 109 -190 155 -190 l 109 -161 q 168 -32 159 -132 q 81 77 168 49 l 81 106 l 161 191 z "},"“":{"ha":378,"x_min":0,"x_max":345,"o":"m 62 1503 q 67 1497 67 1499 l 67 1154 l 68 1154 q 85 1177 73 1168 q 106 1197 94 1197 l 107 1197 q 124 1178 121 1197 q 109 1162 119 1162 l 104 1162 q 93 1168 99 1162 q 70 1114 70 1143 q 80 1099 77 1114 q 71 1082 80 1090 l 106 1082 q 134 1054 134 1082 l 134 971 q 106 938 134 938 q 73 912 73 938 q 75 907 75 912 q 121 846 90 861 q 134 805 134 838 q 119 787 130 787 l 115 787 q 81 797 101 787 q 0 935 0 846 q 1 971 1 956 l 1 1055 q 24 1082 1 1082 l 52 1082 l 52 1085 q 45 1097 45 1091 l 45 1101 q 52 1112 45 1106 l 52 1497 q 57 1503 55 1503 l 62 1503 m 52 1055 q 39 1036 39 1049 q 57 1015 42 1015 q 76 1037 73 1015 q 67 1053 71 1053 q 62 1041 67 1041 l 57 1041 q 52 1055 52 1041 m 272 1503 q 277 1497 277 1499 l 277 1154 l 279 1154 q 296 1177 283 1168 q 316 1197 304 1197 l 317 1197 q 334 1178 332 1197 q 319 1162 330 1162 l 315 1162 q 303 1168 309 1162 q 280 1114 280 1143 q 290 1099 288 1114 q 281 1082 290 1090 l 316 1082 q 345 1054 345 1082 l 345 971 q 316 938 345 938 q 283 912 283 938 q 285 907 285 912 q 332 846 300 861 q 345 805 345 838 q 329 787 340 787 l 325 787 q 292 797 311 787 q 210 935 210 846 q 212 971 212 956 l 212 1055 q 235 1082 212 1082 l 262 1082 l 262 1085 q 256 1097 256 1091 l 256 1101 q 262 1112 256 1106 l 262 1497 q 267 1503 265 1503 l 272 1503 m 262 1055 q 249 1036 249 1049 q 267 1015 252 1015 q 286 1037 283 1015 q 277 1053 281 1053 q 272 1041 277 1041 l 267 1041 q 262 1055 262 1041 z "},"”":{"ha":378,"x_min":0,"x_max":331,"o":"m 73 1503 l 77 1503 q 83 1497 79 1503 l 83 1112 q 89 1101 89 1106 l 89 1097 q 83 1085 89 1091 l 83 1082 l 110 1082 q 133 1055 133 1082 l 133 971 q 134 935 133 956 q 53 797 134 846 q 20 787 33 787 l 16 787 q 0 805 4 787 q 13 846 0 838 q 60 907 44 861 q 62 912 60 912 q 28 938 62 938 q 0 971 0 938 l 0 1054 q 28 1082 0 1082 l 63 1082 q 54 1099 54 1090 q 64 1114 57 1114 q 41 1168 64 1143 q 30 1162 35 1162 l 26 1162 q 10 1178 15 1162 q 27 1197 13 1197 l 28 1197 q 49 1177 41 1197 q 66 1154 61 1168 l 67 1154 l 67 1497 q 73 1503 67 1499 m 83 1055 q 77 1041 83 1041 l 73 1041 q 67 1053 67 1041 q 58 1037 63 1053 q 77 1015 62 1015 q 96 1036 92 1015 q 83 1055 96 1049 m 269 1503 l 274 1503 q 279 1497 276 1503 l 279 1112 q 286 1101 286 1106 l 286 1097 q 279 1085 286 1091 l 279 1082 l 307 1082 q 330 1055 330 1082 l 330 971 q 331 935 330 956 q 250 797 331 846 q 216 787 230 787 l 212 787 q 197 805 201 787 q 210 846 197 838 q 256 907 241 861 q 258 912 256 912 q 225 938 258 938 q 197 971 197 938 l 197 1054 q 225 1082 197 1082 l 260 1082 q 251 1099 251 1090 q 261 1114 254 1114 q 238 1168 261 1143 q 227 1162 232 1162 l 222 1162 q 207 1178 212 1162 q 224 1197 210 1197 l 225 1197 q 245 1177 237 1197 q 262 1154 258 1168 l 264 1154 l 264 1497 q 269 1503 264 1499 m 279 1055 q 274 1041 279 1041 l 269 1041 q 264 1053 264 1041 q 255 1037 260 1053 q 274 1015 258 1015 q 292 1036 289 1015 q 279 1055 292 1049 z "},"„":{"ha":617,"x_min":81,"x_max":491,"o":"m 161 191 q 221 146 191 191 q 252 43 252 102 q 203 -110 252 -31 q 109 -190 155 -190 l 109 -161 q 168 -32 159 -132 q 81 77 168 49 l 81 106 l 161 191 m 401 191 q 461 146 431 191 q 491 43 491 102 q 443 -110 491 -31 q 349 -190 395 -190 l 349 -161 q 408 -32 398 -132 q 320 77 408 49 l 320 106 l 401 191 z "},"†":{"ha":688,"x_min":48,"x_max":640,"o":"m 330 693 q 293 814 324 759 q 254 901 254 882 q 279 955 254 935 q 344 975 303 975 q 408 956 382 975 q 433 907 433 937 q 396 814 433 886 q 359 693 365 757 q 479 730 424 699 q 566 768 547 768 q 620 744 600 768 q 640 679 640 720 q 622 615 640 640 q 572 589 603 589 q 480 627 551 589 q 359 665 422 658 q 433 477 364 546 q 357 -183 361 165 l 332 -183 q 254 477 328 165 q 330 665 323 546 q 209 628 264 659 q 121 589 140 589 q 68 614 88 589 q 48 679 48 638 q 67 743 48 718 q 115 768 85 768 q 208 730 137 768 q 330 693 266 699 z "},"‡":{"ha":688,"x_min":47,"x_max":640,"o":"m 358 126 q 479 165 422 134 q 572 202 550 202 q 621 177 602 202 q 640 113 640 151 q 619 47 640 72 q 566 23 599 23 q 478 62 547 23 q 358 98 423 93 q 395 -23 364 35 q 433 -116 433 -94 q 407 -164 433 -146 q 343 -183 382 -183 q 278 -163 302 -183 q 254 -110 254 -143 q 292 -22 254 -91 q 329 98 323 33 q 208 61 265 92 q 115 23 136 23 q 66 48 85 23 q 47 113 47 74 q 67 178 47 153 q 121 202 87 202 q 208 163 140 202 q 329 126 264 133 q 254 396 323 279 q 329 665 323 512 q 208 628 264 659 q 121 589 140 589 q 67 614 87 589 q 47 679 47 638 q 66 743 47 718 q 115 768 85 768 q 208 730 136 768 q 329 693 265 699 q 292 814 323 759 q 254 901 254 882 q 278 955 254 935 q 343 975 302 975 q 407 956 382 975 q 433 907 433 937 q 395 814 433 886 q 358 693 364 757 q 478 730 423 699 q 566 768 547 768 q 619 744 599 768 q 640 679 640 720 q 621 615 640 640 q 572 589 602 589 q 479 627 550 589 q 358 665 422 658 q 433 396 363 512 q 358 126 363 279 z "},"•":{"ha":694,"x_min":146,"x_max":548,"o":"m 146 487 q 205 629 146 570 q 348 687 264 687 q 489 628 431 687 q 548 487 548 570 q 489 345 548 404 q 347 286 429 286 q 205 345 263 286 q 146 487 146 404 z "},"…":{"ha":1389,"x_min":87,"x_max":1183,"o":"m 98 113 l 154 170 q 174 180 164 180 q 195 169 182 180 l 249 111 q 257 91 257 100 q 248 70 257 81 l 193 10 q 174 -3 180 -3 q 154 6 163 -3 l 94 75 q 87 92 87 83 q 98 113 87 102 m 562 113 l 617 170 q 637 180 627 180 q 658 169 646 180 l 712 111 q 720 91 720 100 q 711 70 720 81 l 656 10 q 637 -3 643 -3 q 617 6 626 -3 l 557 75 q 551 92 551 83 q 562 113 551 102 m 1025 113 l 1080 170 q 1100 180 1090 180 q 1121 169 1109 180 l 1175 111 q 1183 91 1183 100 q 1174 70 1183 81 l 1120 10 q 1100 -3 1106 -3 q 1080 6 1089 -3 l 1021 75 q 1014 92 1014 83 q 1025 113 1014 102 z "},"‹":{"ha":428,"x_min":118,"x_max":359,"o":"m 118 325 l 350 530 l 359 530 l 359 505 l 220 325 l 359 144 l 359 119 l 350 119 l 118 325 z "},"›":{"ha":428,"x_min":68,"x_max":310,"o":"m 78 119 l 68 119 l 68 144 l 208 325 l 68 505 l 68 530 l 78 530 l 310 325 l 78 119 z "},"⁄":{"ha":232,"x_min":-232,"x_max":463,"o":"m -232 -20 l 406 971 l 463 971 l -174 -20 l -232 -20 z "},"∕":{"ha":232,"x_min":-232,"x_max":463,"o":"m -232 -20 l 406 971 l 463 971 l -174 -20 l -232 -20 z "},"₣":{"ha":688,"x_min":33,"x_max":723,"o":"m 168 242 l 36 242 l 36 283 l 168 283 l 168 779 q 98 939 168 939 l 33 939 l 33 972 l 653 972 l 723 816 l 690 816 q 561 939 650 939 l 347 939 q 277 779 277 939 l 277 541 l 522 541 q 590 583 590 541 l 590 623 l 624 623 l 624 391 l 590 391 l 590 431 q 522 473 590 473 l 277 473 l 277 283 l 409 283 l 409 242 l 277 242 l 277 193 q 347 34 277 34 l 412 34 l 412 0 l 33 0 l 33 34 l 98 34 q 168 193 168 34 l 168 242 z "},"₤":{"ha":688,"x_min":52,"x_max":635,"o":"m 507 913 q 399 935 458 935 l 397 935 q 269 866 330 935 q 212 703 212 803 q 212 682 212 692 q 235 538 212 610 l 492 538 l 492 497 l 248 497 q 266 456 256 477 l 505 456 l 505 416 l 287 416 q 311 322 311 373 q 201 68 311 213 l 473 68 q 602 157 562 68 l 635 157 l 565 0 l 77 0 l 78 34 q 205 317 205 195 q 182 414 205 370 l 180 416 l 64 416 l 64 456 l 161 456 q 143 497 151 477 l 52 497 l 52 538 l 128 538 q 104 669 104 610 q 188 904 104 822 q 398 986 271 986 q 524 977 449 986 q 599 954 599 967 l 599 844 l 559 844 q 507 913 556 886 z "},"₧":{"ha":1375,"x_min":33,"x_max":1334,"o":"m 277 939 l 277 490 q 282 478 279 484 q 355 374 310 409 q 434 345 394 345 q 447 345 441 345 q 533 396 493 351 q 592 516 573 441 q 607 637 607 575 q 606 669 607 654 q 573 818 602 748 q 499 916 544 887 q 423 939 461 939 q 409 939 416 939 l 277 939 m 1015 616 l 893 616 l 893 151 q 916 71 893 96 q 971 45 935 50 l 923 176 l 956 176 q 1034 58 994 88 q 1120 28 1072 28 l 1124 28 q 1227 64 1187 28 q 1267 156 1267 100 q 1091 309 1267 225 q 994 385 1023 345 q 964 484 964 426 q 1014 615 964 566 l 1015 616 m 705 617 q 672 486 700 549 q 576 365 638 408 q 448 322 515 322 q 318 366 380 322 q 277 400 296 380 l 277 193 q 347 34 277 34 l 412 34 l 412 0 l 33 0 l 33 34 l 98 34 q 168 193 168 34 l 168 779 q 98 939 168 939 l 33 939 l 33 972 l 452 972 q 574 930 514 971 q 671 810 636 888 q 706 650 705 734 l 713 650 q 859 890 859 650 l 893 890 l 893 650 l 1069 650 q 1143 663 1097 663 l 1145 663 q 1235 654 1181 663 q 1289 631 1289 645 l 1289 524 l 1261 524 q 1216 597 1258 568 q 1126 625 1175 625 q 1056 601 1082 625 q 1030 535 1030 576 q 1190 386 1030 462 q 1303 306 1272 349 q 1334 202 1334 264 q 1278 45 1334 107 q 1123 -13 1208 -12 q 1052 -5 1084 -13 q 1014 -1 1033 -1 q 989 -3 1002 -1 q 949 -7 970 -7 q 832 32 865 -7 q 793 151 798 71 l 792 151 l 792 617 l 705 617 z "},"€":{"ha":688,"x_min":-30,"x_max":724,"o":"m 95 252 q 43 443 53 344 l -30 443 l -18 484 l 41 484 l 41 503 q 41 524 41 514 l -7 524 l 5 565 l 44 565 q 96 755 54 663 q 249 941 151 876 q 451 1006 347 1006 q 510 1001 480 1006 q 566 981 537 994 q 576 977 571 977 q 600 1008 590 977 l 627 1008 l 684 817 l 657 817 q 564 937 624 907 q 509 959 534 952 l 509 961 q 440 972 475 972 q 417 970 429 972 q 264 893 336 962 q 157 708 192 825 q 131 565 136 637 l 610 565 l 598 524 l 129 524 q 130 484 129 504 l 587 484 l 576 443 l 134 443 q 190 241 145 336 q 321 81 240 134 q 467 34 390 35 q 641 96 593 36 q 691 221 691 157 l 724 221 l 724 124 q 648 38 724 77 q 467 0 577 1 q 247 66 345 0 q 95 252 149 133 z "},"№":{"ha":1540,"x_min":0,"x_max":0,"o":""},"™":{"ha":1015,"x_min":0,"x_max":0,"o":""},"∂":{"ha":688,"x_min":52,"x_max":635,"o":"m 157 364 q 161 311 157 336 q 202 155 170 228 q 283 43 235 81 q 370 7 326 7 q 378 7 374 7 q 465 55 426 11 q 519 177 504 100 q 530 278 530 227 q 527 336 530 307 q 485 493 517 418 q 404 605 452 567 q 317 639 359 639 l 309 639 q 224 592 263 635 q 168 471 184 548 q 157 364 157 414 m 635 323 q 597 153 635 234 q 489 28 559 73 q 344 -17 420 -17 q 198 28 268 -17 q 91 153 129 73 q 52 323 52 234 q 92 494 52 412 q 201 619 131 575 q 344 663 271 663 q 488 619 418 663 q 524 591 507 607 q 366 847 467 751 q 144 952 264 943 l 144 989 q 494 796 352 989 q 635 323 635 603 z "},"∆":{"ha":733,"x_min":4,"x_max":728,"o":"m 349 810 l 73 83 l 616 83 l 349 810 m 371 972 l 728 0 l 4 0 l 371 972 z "},"∏":{"ha":1027,"x_min":33,"x_max":995,"o":"m 347 939 q 277 779 277 939 l 277 -90 q 347 -249 277 -249 l 412 -249 l 412 -283 l 33 -283 l 33 -249 l 98 -249 q 168 -90 168 -249 l 168 779 q 98 939 168 939 l 33 939 l 33 972 l 995 972 l 995 939 l 929 939 q 860 779 860 939 l 860 -90 q 929 -249 860 -249 l 995 -249 l 995 -283 l 615 -283 l 615 -249 l 680 -249 q 750 -90 750 -249 l 750 779 q 680 939 750 939 l 347 939 z "},"∑":{"ha":818,"x_min":81,"x_max":776,"o":"m 718 372 l 184 -248 l 614 -248 q 743 -125 703 -248 l 776 -125 l 706 -282 l 81 -282 l 81 -248 q 153 -212 123 -248 l 603 317 l 153 900 q 81 939 123 939 l 81 972 l 706 972 l 776 815 l 743 815 q 614 939 703 939 l 286 939 l 718 372 z "},"−":{"ha":688,"x_min":59,"x_max":629,"o":"m 59 439 l 59 534 l 628 534 l 629 533 l 629 439 l 59 439 z "},"√":{"ha":688,"x_min":12,"x_max":715,"o":"m 123 0 l 12 243 l 62 267 l 119 142 l 613 1139 l 715 1139 l 715 1098 l 666 1098 l 123 0 z "},"∞":{"ha":688,"x_min":45,"x_max":645,"o":"m 298 512 q 248 602 288 582 q 191 617 216 617 q 175 616 182 617 q 112 586 142 609 q 68 528 83 562 q 54 467 54 497 l 54 462 q 73 401 56 429 q 121 362 90 374 q 163 355 141 355 q 185 357 174 355 q 247 386 217 363 q 298 512 276 409 m 316 466 q 380 362 324 401 q 463 330 427 330 q 477 331 471 330 q 557 366 519 339 q 614 435 595 393 q 632 508 632 471 l 632 515 q 608 589 631 556 q 546 635 585 622 q 494 644 521 644 q 465 642 479 644 q 378 600 419 635 q 316 466 338 564 m 305 561 q 319 608 311 585 q 384 701 342 667 q 471 734 425 734 q 557 701 516 734 q 622 610 599 669 q 645 486 645 551 q 622 363 645 422 q 557 271 599 304 q 471 239 516 239 q 384 272 425 239 q 319 364 342 305 q 305 412 311 388 q 297 384 302 397 q 247 307 279 334 q 180 280 215 280 q 112 308 144 280 q 62 385 79 336 q 45 486 45 434 q 62 587 45 538 q 112 665 79 637 q 180 692 144 692 q 247 665 215 692 q 297 589 279 638 q 305 561 302 575 z "},"∫":{"ha":451,"x_min":-49,"x_max":492,"o":"m -8 -191 q -49 -171 -49 -191 l -49 -63 l -24 -63 q -1 -107 -24 -92 q 42 -121 22 -121 l 43 -121 q 121 -12 98 -121 q 148 203 142 98 l 195 701 l 201 743 q 292 1034 219 904 q 451 1164 366 1164 q 492 1144 492 1164 l 492 1036 l 467 1036 q 444 1080 467 1065 q 401 1095 420 1095 q 322 989 353 1095 q 289 743 292 884 l 239 222 q 151 -62 226 66 q -8 -191 76 -191 z "},"≈":{"ha":688,"x_min":64,"x_max":626,"o":"m 626 714 l 626 608 q 543 542 583 559 q 465 525 503 525 q 344 558 424 525 q 224 591 264 591 q 152 572 190 591 q 64 496 113 553 l 64 602 q 147 669 107 651 q 224 686 187 686 q 348 653 268 686 q 465 619 427 619 q 538 638 500 619 q 626 714 576 657 m 626 478 l 626 372 q 543 306 583 323 q 465 289 503 289 q 344 322 424 289 q 224 355 264 355 q 152 336 190 355 q 64 260 113 317 l 64 366 q 147 433 107 415 q 224 450 187 450 q 348 417 268 450 q 465 383 427 383 q 538 402 500 383 q 626 478 576 421 z "},"≤":{"ha":688,"x_min":59,"x_max":629,"o":"m 629 728 l 205 485 l 629 244 l 629 131 l 59 457 l 59 513 l 629 842 l 629 728 m 59 1 l 59 96 l 628 96 l 629 95 l 629 1 l 59 1 z "},"≥":{"ha":688,"x_min":59,"x_max":629,"o":"m 59 842 l 629 513 l 629 457 l 59 131 l 59 244 l 483 485 l 59 728 l 59 842 m 59 1 l 59 96 l 628 96 l 629 96 l 629 1 l 59 1 z "},"":{"ha":728,"x_min":0,"x_max":0,"o":""},"ﬁ":{"ha":728,"x_min":0,"x_max":0,"o":""},"":{"ha":733,"x_min":0,"x_max":0,"o":""},"ﬂ":{"ha":733,"x_min":0,"x_max":0,"o":""}}}
